<svg width="352" height="395" viewBox="0 0 352 395" fill="none" xmlns="http://www.w3.org/2000/svg">
<path d="M246.5 298.5L271.5 255.199L321.499 255.199L346.499 298.5L321.499 341.801L271.5 341.801L246.5 298.5Z" fill="#48A4C8"/>
<path d="M281.271 303V294.469H279.619L279.613 299.947L277.257 294.469H275.599V303H277.257V297.498L279.63 303H281.271ZM282.689 299.771V299.895C282.689 300.359 282.755 300.789 282.888 301.184C283.021 301.574 283.216 301.914 283.474 302.203C283.728 302.492 284.041 302.719 284.412 302.883C284.787 303.043 285.213 303.123 285.689 303.123C286.162 303.123 286.584 303.043 286.955 302.883C287.326 302.719 287.638 302.492 287.892 302.203C288.146 301.914 288.339 301.574 288.472 301.184C288.605 300.789 288.671 300.359 288.671 299.895V299.771C288.671 299.311 288.605 298.885 288.472 298.494C288.339 298.1 288.146 297.758 287.892 297.469C287.634 297.18 287.32 296.953 286.949 296.789C286.578 296.625 286.154 296.543 285.677 296.543C285.201 296.543 284.777 296.625 284.406 296.789C284.039 296.953 283.728 297.18 283.474 297.469C283.216 297.758 283.021 298.1 282.888 298.494C282.755 298.885 282.689 299.311 282.689 299.771ZM284.318 299.895V299.771C284.318 299.514 284.343 299.27 284.394 299.039C284.445 298.809 284.525 298.605 284.634 298.43C284.744 298.254 284.884 298.115 285.056 298.014C285.228 297.912 285.435 297.861 285.677 297.861C285.923 297.861 286.132 297.912 286.304 298.014C286.476 298.115 286.617 298.254 286.726 298.43C286.832 298.605 286.91 298.809 286.961 299.039C287.011 299.27 287.037 299.514 287.037 299.771V299.895C287.037 300.16 287.011 300.41 286.961 300.645C286.91 300.875 286.832 301.076 286.726 301.248C286.617 301.424 286.476 301.562 286.304 301.664C286.132 301.766 285.927 301.816 285.689 301.816C285.443 301.816 285.232 301.766 285.056 301.664C284.884 301.562 284.744 301.424 284.634 301.248C284.525 301.076 284.445 300.875 284.394 300.645C284.343 300.41 284.318 300.16 284.318 299.895ZM289.949 299.783V299.906C289.949 300.367 290.005 300.795 290.119 301.189C290.232 301.58 290.396 301.918 290.611 302.203C290.822 302.488 291.08 302.713 291.384 302.877C291.693 303.037 292.041 303.117 292.427 303.117C292.783 303.117 293.095 303.049 293.365 302.912C293.634 302.775 293.869 302.584 294.068 302.338L294.15 303H295.621V294H293.986V297.229C293.791 297.01 293.566 296.842 293.312 296.725C293.062 296.604 292.771 296.543 292.439 296.543C292.045 296.543 291.693 296.621 291.384 296.777C291.08 296.934 290.82 297.154 290.605 297.439C290.39 297.725 290.226 298.066 290.113 298.465C290.004 298.863 289.949 299.303 289.949 299.783ZM291.578 299.906V299.783C291.578 299.518 291.601 299.27 291.648 299.039C291.695 298.805 291.769 298.6 291.871 298.424C291.972 298.252 292.103 298.117 292.263 298.02C292.427 297.918 292.625 297.867 292.855 297.867C293.132 297.867 293.363 297.928 293.546 298.049C293.73 298.166 293.877 298.332 293.986 298.547V301.113C293.877 301.324 293.728 301.49 293.541 301.611C293.357 301.732 293.125 301.793 292.843 301.793C292.613 301.793 292.418 301.744 292.257 301.646C292.097 301.549 291.966 301.414 291.865 301.242C291.763 301.074 291.689 300.877 291.642 300.65C291.599 300.42 291.578 300.172 291.578 299.906ZM300.402 303.117C301.015 303.117 301.546 302.998 301.996 302.76C302.445 302.521 302.773 302.256 302.98 301.963L302.166 301.084C301.978 301.326 301.734 301.508 301.433 301.629C301.132 301.75 300.822 301.811 300.502 301.811C300.275 301.811 300.066 301.775 299.875 301.705C299.683 301.635 299.513 301.535 299.365 301.406C299.22 301.281 299.105 301.143 299.019 300.99C298.933 300.834 298.863 300.629 298.808 300.375V300.357H303.109V299.666C303.109 299.201 303.045 298.777 302.916 298.395C302.787 298.008 302.599 297.678 302.353 297.404C302.103 297.131 301.798 296.92 301.439 296.771C301.084 296.619 300.677 296.543 300.22 296.543C299.779 296.543 299.371 296.623 298.996 296.783C298.621 296.943 298.296 297.168 298.023 297.457C297.75 297.746 297.537 298.092 297.384 298.494C297.232 298.893 297.156 299.334 297.156 299.818V300.053C297.156 300.479 297.232 300.879 297.384 301.254C297.541 301.625 297.761 301.947 298.046 302.221C298.332 302.498 298.673 302.717 299.072 302.877C299.47 303.037 299.914 303.117 300.402 303.117ZM300.209 297.861C300.416 297.861 300.597 297.895 300.754 297.961C300.914 298.023 301.048 298.109 301.158 298.219C301.267 298.332 301.353 298.465 301.416 298.617C301.478 298.77 301.509 298.932 301.509 299.104V299.232H298.837C298.877 299.025 298.935 298.838 299.013 298.67C299.091 298.502 299.189 298.357 299.306 298.236C299.42 298.115 299.552 298.023 299.705 297.961C299.857 297.895 300.025 297.861 300.209 297.861ZM308.5 294.469V300.381C308.5 300.58 308.468 300.768 308.406 300.943C308.347 301.115 308.263 301.264 308.154 301.389C308.045 301.514 307.912 301.613 307.755 301.687C307.599 301.758 307.427 301.793 307.24 301.793C307.005 301.793 306.806 301.762 306.642 301.699C306.478 301.637 306.345 301.541 306.244 301.412C306.166 301.307 306.107 301.178 306.068 301.025C306.029 300.873 306.009 300.695 306.009 300.492H304.357C304.361 300.934 304.433 301.318 304.574 301.646C304.714 301.975 304.912 302.246 305.166 302.461C305.416 302.68 305.716 302.844 306.068 302.953C306.42 303.062 306.81 303.117 307.24 303.117C307.646 303.117 308.025 303.051 308.377 302.918C308.732 302.785 309.041 302.598 309.302 302.355C309.564 302.113 309.769 301.826 309.918 301.494C310.07 301.158 310.148 300.787 310.152 300.381L310.146 294.469H308.5ZM316.111 300.773C316.111 300.926 316.08 301.066 316.017 301.195C315.955 301.32 315.865 301.428 315.748 301.518C315.63 301.607 315.486 301.678 315.314 301.729C315.146 301.779 314.953 301.805 314.734 301.805C314.488 301.805 314.261 301.777 314.054 301.723C313.851 301.668 313.677 301.582 313.533 301.465C313.384 301.348 313.269 301.197 313.187 301.014C313.105 300.83 313.06 300.609 313.052 300.352H311.435C311.435 300.793 311.519 301.178 311.687 301.506C311.859 301.834 312.091 302.119 312.384 302.361C312.693 302.607 313.054 302.795 313.468 302.924C313.886 303.049 314.308 303.111 314.734 303.111C315.168 303.111 315.568 303.061 315.935 302.959C316.302 302.854 316.619 302.699 316.884 302.496C317.15 302.297 317.357 302.053 317.505 301.764C317.658 301.471 317.734 301.137 317.734 300.762C317.734 300.328 317.634 299.945 317.435 299.613C317.236 299.281 316.968 298.99 316.632 298.74C316.41 298.588 316.166 298.453 315.9 298.336C315.634 298.219 315.355 298.119 315.062 298.037C314.789 297.963 314.543 297.883 314.324 297.797C314.109 297.711 313.925 297.615 313.773 297.51C313.621 297.408 313.504 297.293 313.421 297.164C313.343 297.035 313.304 296.891 313.304 296.73C313.304 296.578 313.334 296.437 313.392 296.309C313.455 296.176 313.545 296.061 313.662 295.963C313.779 295.869 313.921 295.797 314.089 295.746C314.261 295.691 314.457 295.664 314.675 295.664C314.914 295.664 315.121 295.697 315.296 295.764C315.476 295.826 315.627 295.914 315.748 296.027C315.865 296.145 315.953 296.283 316.011 296.443C316.074 296.604 316.109 296.779 316.117 296.971H317.722C317.722 296.588 317.648 296.236 317.5 295.916C317.351 295.596 317.144 295.318 316.879 295.084C316.613 294.854 316.295 294.674 315.923 294.545C315.556 294.416 315.15 294.352 314.705 294.352C314.275 294.352 313.877 294.408 313.509 294.521C313.142 294.631 312.824 294.789 312.554 294.996C312.285 295.203 312.074 295.453 311.921 295.746C311.769 296.039 311.693 296.365 311.693 296.725C311.693 297.037 311.75 297.326 311.863 297.592C311.98 297.857 312.152 298.1 312.379 298.318C312.605 298.537 312.896 298.738 313.252 298.922C313.611 299.105 314.027 299.262 314.5 299.391C314.804 299.473 315.058 299.562 315.261 299.66C315.468 299.754 315.636 299.857 315.765 299.971C315.89 300.088 315.978 300.213 316.029 300.346C316.084 300.479 316.111 300.621 316.111 300.773Z" fill="white"/>
<path d="M166.5 245.5L191.5 202.199L241.499 202.199L266.499 245.5L241.499 288.801L191.5 288.801L166.5 245.5Z" fill="#48A4C8"/>
<path d="M212.379 247.328H210.733C210.717 247.586 210.674 247.807 210.604 247.99C210.534 248.174 210.438 248.324 210.317 248.441C210.196 248.559 210.049 248.645 209.877 248.699C209.706 248.754 209.512 248.781 209.297 248.781C209.137 248.781 208.991 248.764 208.858 248.729C208.729 248.689 208.612 248.631 208.506 248.553C208.409 248.482 208.321 248.395 208.243 248.289C208.168 248.184 208.104 248.062 208.049 247.926C207.971 247.727 207.913 247.494 207.874 247.229C207.838 246.959 207.821 246.654 207.821 246.314V245.154C207.821 244.904 207.832 244.672 207.856 244.457C207.879 244.238 207.916 244.039 207.967 243.859C208.034 243.629 208.122 243.428 208.231 243.256C208.344 243.08 208.481 242.945 208.641 242.852C208.735 242.797 208.836 242.756 208.946 242.729C209.059 242.701 209.18 242.687 209.309 242.687C209.551 242.687 209.758 242.721 209.93 242.787C210.106 242.85 210.252 242.943 210.37 243.068C210.483 243.197 210.569 243.357 210.627 243.549C210.69 243.74 210.729 243.963 210.745 244.217H212.385C212.346 243.771 212.252 243.371 212.104 243.016C211.956 242.66 211.752 242.359 211.495 242.113C211.237 241.867 210.924 241.678 210.557 241.545C210.194 241.412 209.778 241.346 209.309 241.346C208.993 241.346 208.696 241.387 208.418 241.469C208.145 241.547 207.893 241.66 207.663 241.809C207.405 241.984 207.174 242.199 206.971 242.453C206.768 242.707 206.604 242.996 206.479 243.32C206.37 243.586 206.288 243.875 206.233 244.187C206.178 244.496 206.151 244.822 206.151 245.166V246.314C206.151 246.682 206.18 247.029 206.239 247.357C206.301 247.686 206.389 247.986 206.502 248.26C206.62 248.533 206.762 248.783 206.93 249.01C207.102 249.236 207.297 249.43 207.516 249.59C207.754 249.762 208.022 249.895 208.319 249.988C208.62 250.078 208.946 250.123 209.297 250.123C209.743 250.123 210.149 250.059 210.516 249.93C210.883 249.797 211.2 249.609 211.465 249.367C211.731 249.125 211.942 248.832 212.098 248.488C212.258 248.145 212.352 247.758 212.379 247.328ZM218.092 247.773C218.092 247.926 218.061 248.066 217.999 248.195C217.936 248.32 217.846 248.428 217.729 248.518C217.612 248.607 217.467 248.678 217.295 248.729C217.127 248.779 216.934 248.805 216.715 248.805C216.469 248.805 216.243 248.777 216.036 248.723C215.832 248.668 215.659 248.582 215.514 248.465C215.366 248.348 215.25 248.197 215.168 248.014C215.086 247.83 215.041 247.609 215.034 247.352H213.416C213.416 247.793 213.5 248.178 213.668 248.506C213.84 248.834 214.073 249.119 214.366 249.361C214.674 249.607 215.036 249.795 215.45 249.924C215.868 250.049 216.29 250.111 216.715 250.111C217.149 250.111 217.549 250.061 217.916 249.959C218.284 249.854 218.6 249.699 218.866 249.496C219.131 249.297 219.338 249.053 219.487 248.764C219.639 248.471 219.715 248.137 219.715 247.762C219.715 247.328 219.616 246.945 219.416 246.613C219.217 246.281 218.95 245.99 218.614 245.74C218.391 245.588 218.147 245.453 217.881 245.336C217.616 245.219 217.336 245.119 217.043 245.037C216.77 244.963 216.524 244.883 216.305 244.797C216.09 244.711 215.907 244.615 215.754 244.51C215.602 244.408 215.485 244.293 215.403 244.164C215.325 244.035 215.286 243.891 215.286 243.73C215.286 243.578 215.315 243.437 215.374 243.309C215.436 243.176 215.526 243.061 215.643 242.963C215.76 242.869 215.903 242.797 216.071 242.746C216.243 242.691 216.438 242.664 216.657 242.664C216.895 242.664 217.102 242.697 217.278 242.764C217.457 242.826 217.608 242.914 217.729 243.027C217.846 243.145 217.934 243.283 217.993 243.443C218.055 243.604 218.09 243.779 218.098 243.971H219.704C219.704 243.588 219.629 243.236 219.481 242.916C219.332 242.596 219.125 242.318 218.86 242.084C218.594 241.854 218.276 241.674 217.905 241.545C217.538 241.416 217.131 241.352 216.686 241.352C216.256 241.352 215.858 241.408 215.491 241.521C215.124 241.631 214.805 241.789 214.536 241.996C214.266 242.203 214.055 242.453 213.903 242.746C213.75 243.039 213.674 243.365 213.674 243.725C213.674 244.037 213.731 244.326 213.844 244.592C213.961 244.857 214.133 245.1 214.36 245.318C214.586 245.537 214.877 245.738 215.233 245.922C215.592 246.105 216.008 246.262 216.481 246.391C216.786 246.473 217.04 246.562 217.243 246.66C217.45 246.754 217.618 246.857 217.747 246.971C217.872 247.088 217.959 247.213 218.01 247.346C218.065 247.479 218.092 247.621 218.092 247.773ZM225.299 247.773C225.299 247.926 225.268 248.066 225.206 248.195C225.143 248.32 225.053 248.428 224.936 248.518C224.819 248.607 224.674 248.678 224.502 248.729C224.334 248.779 224.141 248.805 223.922 248.805C223.676 248.805 223.45 248.777 223.243 248.723C223.04 248.668 222.866 248.582 222.721 248.465C222.573 248.348 222.457 248.197 222.375 248.014C222.293 247.83 222.249 247.609 222.241 247.352H220.624C220.624 247.793 220.707 248.178 220.875 248.506C221.047 248.834 221.28 249.119 221.573 249.361C221.881 249.607 222.243 249.795 222.657 249.924C223.075 250.049 223.497 250.111 223.922 250.111C224.356 250.111 224.756 250.061 225.124 249.959C225.491 249.854 225.807 249.699 226.073 249.496C226.338 249.297 226.545 249.053 226.694 248.764C226.846 248.471 226.922 248.137 226.922 247.762C226.922 247.328 226.823 246.945 226.624 246.613C226.424 246.281 226.157 245.99 225.821 245.74C225.598 245.588 225.354 245.453 225.088 245.336C224.823 245.219 224.543 245.119 224.25 245.037C223.977 244.963 223.731 244.883 223.512 244.797C223.297 244.711 223.114 244.615 222.961 244.51C222.809 244.408 222.692 244.293 222.61 244.164C222.532 244.035 222.493 243.891 222.493 243.73C222.493 243.578 222.522 243.437 222.581 243.309C222.643 243.176 222.733 243.061 222.85 242.963C222.967 242.869 223.11 242.797 223.278 242.746C223.45 242.691 223.645 242.664 223.864 242.664C224.102 242.664 224.309 242.697 224.485 242.764C224.665 242.826 224.815 242.914 224.936 243.027C225.053 243.145 225.141 243.283 225.2 243.443C225.262 243.604 225.297 243.779 225.305 243.971H226.911C226.911 243.588 226.836 243.236 226.688 242.916C226.54 242.596 226.332 242.318 226.067 242.084C225.801 241.854 225.483 241.674 225.112 241.545C224.745 241.416 224.338 241.352 223.893 241.352C223.463 241.352 223.065 241.408 222.698 241.521C222.331 241.631 222.012 241.789 221.743 241.996C221.473 242.203 221.262 242.453 221.11 242.746C220.957 243.039 220.881 243.365 220.881 243.725C220.881 244.037 220.938 244.326 221.051 244.592C221.168 244.857 221.34 245.1 221.567 245.318C221.793 245.537 222.084 245.738 222.44 245.922C222.799 246.105 223.215 246.262 223.688 246.391C223.993 246.473 224.247 246.562 224.45 246.66C224.657 246.754 224.825 246.857 224.954 246.971C225.079 247.088 225.166 247.213 225.217 247.346C225.272 247.479 225.299 247.621 225.299 247.773Z" fill="white"/>
<path d="M166.5 148.5L191.5 105.199L241.499 105.199L266.499 148.5L241.499 191.801L191.5 191.801L166.5 148.5Z" fill="#2A3E4C"/>
<path d="M194.034 153H195.709L198.293 144.469H196.477L195.024 150.035L194.866 150.615L194.719 150.041L193.272 144.469H191.456L194.034 153ZM202.383 153.117C202.997 153.117 203.528 152.998 203.977 152.76C204.426 152.522 204.754 152.256 204.961 151.963L204.147 151.084C203.959 151.326 203.715 151.508 203.415 151.629C203.114 151.75 202.803 151.811 202.483 151.811C202.256 151.811 202.047 151.775 201.856 151.705C201.665 151.635 201.495 151.535 201.346 151.406C201.202 151.281 201.086 151.143 201 150.99C200.915 150.834 200.844 150.629 200.79 150.375V150.357H205.09V149.666C205.09 149.201 205.026 148.777 204.897 148.395C204.768 148.008 204.581 147.678 204.334 147.404C204.084 147.131 203.78 146.92 203.42 146.772C203.065 146.619 202.659 146.543 202.202 146.543C201.76 146.543 201.352 146.623 200.977 146.783C200.602 146.943 200.278 147.168 200.004 147.457C199.731 147.746 199.518 148.092 199.366 148.494C199.213 148.893 199.137 149.334 199.137 149.818V150.053C199.137 150.479 199.213 150.879 199.366 151.254C199.522 151.625 199.743 151.947 200.028 152.221C200.313 152.498 200.655 152.717 201.053 152.877C201.452 153.037 201.895 153.117 202.383 153.117ZM202.19 147.861C202.397 147.861 202.579 147.895 202.735 147.961C202.895 148.023 203.03 148.109 203.139 148.219C203.249 148.332 203.334 148.465 203.397 148.617C203.459 148.77 203.491 148.932 203.491 149.104V149.232H200.819C200.858 149.025 200.916 148.838 200.995 148.67C201.073 148.502 201.17 148.357 201.288 148.236C201.401 148.115 201.534 148.023 201.686 147.961C201.838 147.895 202.006 147.861 202.19 147.861ZM211.067 146.543C210.641 146.543 210.249 146.647 209.889 146.854C209.53 147.057 209.221 147.338 208.963 147.697L208.952 147.557L208.887 146.66H207.37V153H208.999V149.191C209.073 149.012 209.166 148.856 209.28 148.723C209.393 148.59 209.53 148.481 209.69 148.395C209.823 148.32 209.973 148.266 210.141 148.231C210.313 148.191 210.504 148.172 210.715 148.172C210.918 148.172 211.131 148.186 211.354 148.213C211.581 148.236 211.801 148.273 212.016 148.324L212.256 146.701C212.127 146.662 211.957 146.627 211.747 146.596C211.54 146.561 211.313 146.543 211.067 146.543ZM214.155 146.66V147.99H215.959V151.676H214.155V153H219.323V151.676H217.606V146.66H214.155ZM215.842 145.037C215.842 145.162 215.864 145.279 215.907 145.389C215.954 145.494 216.018 145.584 216.1 145.658C216.182 145.736 216.28 145.797 216.393 145.84C216.51 145.883 216.639 145.904 216.78 145.904C217.069 145.904 217.297 145.824 217.465 145.664C217.637 145.5 217.723 145.291 217.723 145.037C217.723 144.783 217.637 144.576 217.465 144.416C217.297 144.252 217.069 144.17 216.78 144.17C216.639 144.17 216.51 144.191 216.393 144.234C216.28 144.277 216.182 144.336 216.1 144.41C216.018 144.488 215.954 144.582 215.907 144.691C215.864 144.797 215.842 144.912 215.842 145.037ZM221.268 144V145.33H223.166V151.676H221.268V153H226.629V151.676H224.813V144H221.268ZM227.913 149.772V149.895C227.913 150.359 227.979 150.789 228.112 151.184C228.245 151.574 228.44 151.914 228.698 152.203C228.952 152.492 229.264 152.719 229.635 152.883C230.01 153.043 230.436 153.123 230.913 153.123C231.385 153.123 231.807 153.043 232.178 152.883C232.549 152.719 232.862 152.492 233.116 152.203C233.37 151.914 233.563 151.574 233.696 151.184C233.829 150.789 233.895 150.359 233.895 149.895V149.772C233.895 149.311 233.829 148.885 233.696 148.494C233.563 148.1 233.37 147.758 233.116 147.469C232.858 147.18 232.543 146.953 232.172 146.789C231.801 146.625 231.377 146.543 230.901 146.543C230.424 146.543 230 146.625 229.629 146.789C229.262 146.953 228.952 147.18 228.698 147.469C228.44 147.758 228.245 148.1 228.112 148.494C227.979 148.885 227.913 149.311 227.913 149.772ZM229.541 149.895V149.772C229.541 149.514 229.567 149.27 229.618 149.039C229.668 148.809 229.748 148.606 229.858 148.43C229.967 148.254 230.108 148.115 230.28 148.014C230.452 147.912 230.659 147.861 230.901 147.861C231.147 147.861 231.356 147.912 231.528 148.014C231.7 148.115 231.84 148.254 231.95 148.43C232.055 148.606 232.133 148.809 232.184 149.039C232.235 149.27 232.26 149.514 232.26 149.772V149.895C232.26 150.16 232.235 150.41 232.184 150.645C232.133 150.875 232.055 151.076 231.95 151.248C231.84 151.424 231.7 151.563 231.528 151.664C231.356 151.766 231.151 151.816 230.913 151.816C230.666 151.816 230.456 151.766 230.28 151.664C230.108 151.563 229.967 151.424 229.858 151.248C229.748 151.076 229.668 150.875 229.618 150.645C229.567 150.41 229.541 150.16 229.541 149.895ZM235.178 149.783V149.906C235.178 150.367 235.237 150.795 235.354 151.19C235.475 151.58 235.647 151.918 235.87 152.203C236.092 152.488 236.36 152.713 236.672 152.877C236.989 153.037 237.344 153.117 237.739 153.117C237.938 153.117 238.123 153.096 238.295 153.053C238.471 153.01 238.631 152.949 238.776 152.871C238.873 152.816 238.965 152.754 239.051 152.684C239.137 152.613 239.219 152.535 239.297 152.449V152.813C239.297 153.027 239.266 153.221 239.204 153.393C239.145 153.565 239.059 153.709 238.946 153.826C238.821 153.955 238.665 154.053 238.477 154.119C238.293 154.186 238.082 154.219 237.844 154.219C237.696 154.219 237.551 154.203 237.411 154.172C237.274 154.145 237.141 154.102 237.012 154.043C236.879 153.984 236.752 153.908 236.631 153.815C236.51 153.725 236.397 153.619 236.291 153.498L235.559 154.488C235.696 154.664 235.86 154.815 236.051 154.94C236.243 155.068 236.446 155.174 236.661 155.256C236.875 155.338 237.092 155.398 237.311 155.438C237.53 155.477 237.735 155.496 237.926 155.496C238.372 155.496 238.778 155.436 239.145 155.315C239.516 155.197 239.834 155.023 240.1 154.793C240.362 154.563 240.565 154.279 240.709 153.943C240.858 153.607 240.932 153.225 240.932 152.795V146.66H239.45L239.385 147.264C239.307 147.166 239.221 147.078 239.127 147C239.034 146.918 238.932 146.848 238.823 146.789C238.678 146.707 238.516 146.647 238.336 146.607C238.161 146.565 237.965 146.543 237.75 146.543C237.352 146.543 236.995 146.621 236.678 146.777C236.362 146.934 236.092 147.154 235.87 147.44C235.647 147.725 235.475 148.066 235.354 148.465C235.237 148.863 235.178 149.303 235.178 149.783ZM236.813 149.906V149.783C236.813 149.518 236.84 149.27 236.895 149.039C236.95 148.805 237.034 148.6 237.147 148.424C237.256 148.252 237.395 148.117 237.563 148.02C237.731 147.918 237.93 147.867 238.161 147.867C238.286 147.867 238.401 147.879 238.506 147.902C238.616 147.926 238.715 147.959 238.805 148.002C238.911 148.053 239.004 148.119 239.086 148.201C239.168 148.283 239.239 148.379 239.297 148.488V151.172C239.243 151.27 239.178 151.357 239.104 151.436C239.03 151.514 238.944 151.58 238.846 151.635C238.752 151.686 238.647 151.725 238.53 151.752C238.416 151.779 238.29 151.793 238.149 151.793C237.918 151.793 237.719 151.744 237.551 151.647C237.383 151.549 237.245 151.414 237.135 151.242C237.026 151.074 236.944 150.877 236.889 150.65C236.838 150.42 236.813 150.172 236.813 149.906Z" fill="white"/>
<path d="M251.5 198.5L276.5 155.199L326.499 155.199L351.499 198.5L326.499 241.801L276.5 241.801L251.5 198.5Z" fill="#2A3E4C"/>
<path d="M278.806 201.67V194.469H277.154V203H282.802V201.67H278.806ZM290.519 195.811V194.469H283.64V195.811H286.236V203H287.888V195.811H290.519ZM295.886 200.773C295.886 200.926 295.855 201.066 295.793 201.195C295.73 201.32 295.64 201.428 295.523 201.518C295.406 201.607 295.261 201.678 295.089 201.729C294.921 201.779 294.728 201.805 294.509 201.805C294.263 201.805 294.037 201.777 293.83 201.723C293.627 201.668 293.453 201.582 293.308 201.465C293.16 201.348 293.045 201.197 292.963 201.014C292.88 200.83 292.836 200.609 292.828 200.352H291.211C291.211 200.793 291.295 201.178 291.463 201.506C291.634 201.834 291.867 202.119 292.16 202.361C292.468 202.607 292.83 202.795 293.244 202.924C293.662 203.049 294.084 203.111 294.509 203.111C294.943 203.111 295.343 203.061 295.711 202.959C296.078 202.854 296.394 202.699 296.66 202.496C296.925 202.297 297.132 202.053 297.281 201.764C297.433 201.471 297.509 201.137 297.509 200.762C297.509 200.328 297.41 199.945 297.211 199.613C297.011 199.281 296.744 198.99 296.408 198.74C296.185 198.588 295.941 198.453 295.675 198.336C295.41 198.219 295.13 198.119 294.838 198.037C294.564 197.963 294.318 197.883 294.099 197.797C293.884 197.711 293.701 197.615 293.548 197.51C293.396 197.408 293.279 197.293 293.197 197.164C293.119 197.035 293.08 196.891 293.08 196.73C293.08 196.578 293.109 196.437 293.168 196.309C293.23 196.176 293.32 196.061 293.437 195.963C293.554 195.869 293.697 195.797 293.865 195.746C294.037 195.691 294.232 195.664 294.451 195.664C294.689 195.664 294.896 195.697 295.072 195.764C295.252 195.826 295.402 195.914 295.523 196.027C295.64 196.145 295.728 196.283 295.787 196.443C295.849 196.604 295.884 196.779 295.892 196.971H297.498C297.498 196.588 297.423 196.236 297.275 195.916C297.127 195.596 296.92 195.318 296.654 195.084C296.388 194.854 296.07 194.674 295.699 194.545C295.332 194.416 294.925 194.352 294.48 194.352C294.05 194.352 293.652 194.408 293.285 194.521C292.918 194.631 292.599 194.789 292.33 194.996C292.06 195.203 291.849 195.453 291.697 195.746C291.545 196.039 291.468 196.365 291.468 196.725C291.468 197.037 291.525 197.326 291.638 197.592C291.755 197.857 291.927 198.1 292.154 198.318C292.38 198.537 292.671 198.738 293.027 198.922C293.386 199.105 293.802 199.262 294.275 199.391C294.58 199.473 294.834 199.562 295.037 199.66C295.244 199.754 295.412 199.857 295.541 199.971C295.666 200.088 295.754 200.213 295.804 200.346C295.859 200.479 295.886 200.621 295.886 200.773ZM298.746 205.437H300.375V202.449C300.449 202.531 300.527 202.605 300.609 202.672C300.691 202.738 300.777 202.799 300.867 202.854C301.019 202.939 301.183 203.004 301.359 203.047C301.539 203.094 301.734 203.117 301.945 203.117C302.343 203.117 302.697 203.035 303.005 202.871C303.314 202.707 303.574 202.48 303.785 202.191C303.992 201.906 304.148 201.566 304.254 201.172C304.363 200.777 304.418 200.35 304.418 199.889V199.766C304.418 199.285 304.363 198.848 304.254 198.453C304.148 198.055 303.99 197.713 303.779 197.428C303.568 197.146 303.308 196.93 303 196.777C302.691 196.621 302.336 196.543 301.933 196.543C301.738 196.543 301.554 196.564 301.382 196.607C301.214 196.646 301.06 196.703 300.92 196.777C300.802 196.84 300.693 196.914 300.591 197C300.49 197.082 300.396 197.176 300.31 197.281L300.252 196.66H298.746V205.437ZM302.789 199.766V199.889C302.789 200.15 302.765 200.398 302.718 200.633C302.671 200.863 302.597 201.066 302.496 201.242C302.394 201.418 302.261 201.557 302.097 201.658C301.937 201.76 301.742 201.811 301.511 201.811C301.367 201.811 301.236 201.797 301.119 201.77C301.002 201.738 300.898 201.695 300.808 201.641C300.714 201.582 300.63 201.512 300.556 201.43C300.486 201.348 300.425 201.256 300.375 201.154V198.506C300.429 198.396 300.494 198.301 300.568 198.219C300.646 198.137 300.736 198.068 300.837 198.014C300.927 197.967 301.027 197.932 301.136 197.908C301.246 197.881 301.367 197.867 301.5 197.867C301.73 197.867 301.925 197.916 302.086 198.014C302.25 198.111 302.384 198.244 302.49 198.412C302.591 198.584 302.666 198.787 302.712 199.021C302.763 199.252 302.789 199.5 302.789 199.766ZM306.363 196.66V197.99H308.168V201.676H306.363V203H311.531V201.676H309.814V196.66H306.363ZM308.05 195.037C308.05 195.162 308.072 195.279 308.115 195.389C308.162 195.494 308.226 195.584 308.308 195.658C308.39 195.736 308.488 195.797 308.601 195.84C308.718 195.883 308.847 195.904 308.988 195.904C309.277 195.904 309.505 195.824 309.673 195.664C309.845 195.5 309.931 195.291 309.931 195.037C309.931 194.783 309.845 194.576 309.673 194.416C309.505 194.252 309.277 194.17 308.988 194.17C308.847 194.17 308.718 194.191 308.601 194.234C308.488 194.277 308.39 194.336 308.308 194.41C308.226 194.488 308.162 194.582 308.115 194.691C308.072 194.797 308.05 194.912 308.05 195.037ZM315.943 201.816C315.681 201.816 315.464 201.764 315.293 201.658C315.125 201.553 314.992 201.412 314.894 201.236C314.793 201.064 314.722 200.865 314.683 200.639C314.644 200.408 314.625 200.17 314.625 199.924V199.748C314.625 199.506 314.644 199.271 314.683 199.045C314.726 198.818 314.798 198.617 314.9 198.441C314.998 198.266 315.13 198.125 315.298 198.02C315.466 197.914 315.679 197.861 315.937 197.861C316.113 197.861 316.275 197.893 316.423 197.955C316.572 198.014 316.699 198.094 316.804 198.195C316.91 198.297 316.99 198.418 317.045 198.559C317.099 198.699 317.123 198.848 317.115 199.004H318.65C318.658 198.629 318.595 198.291 318.462 197.99C318.33 197.686 318.144 197.426 317.906 197.211C317.664 197 317.377 196.836 317.045 196.719C316.712 196.602 316.351 196.543 315.961 196.543C315.472 196.543 315.043 196.627 314.671 196.795C314.304 196.963 313.996 197.191 313.746 197.48C313.496 197.77 313.308 198.109 313.183 198.5C313.058 198.887 312.996 199.303 312.996 199.748V199.924C312.996 200.369 313.058 200.787 313.183 201.178C313.312 201.564 313.502 201.902 313.752 202.191C313.998 202.48 314.306 202.709 314.677 202.877C315.048 203.041 315.48 203.123 315.972 203.123C316.336 203.123 316.679 203.066 317.004 202.953C317.332 202.836 317.619 202.676 317.865 202.473C318.111 202.27 318.304 202.027 318.445 201.746C318.589 201.465 318.658 201.16 318.65 200.832H317.115C317.123 200.98 317.095 201.115 317.033 201.236C316.974 201.357 316.89 201.461 316.781 201.547C316.671 201.633 316.545 201.699 316.4 201.746C316.255 201.793 316.103 201.816 315.943 201.816ZM323.42 203.117C324.033 203.117 324.564 202.998 325.013 202.76C325.462 202.521 325.791 202.256 325.998 201.963L325.183 201.084C324.996 201.326 324.752 201.508 324.451 201.629C324.15 201.75 323.839 201.811 323.519 201.811C323.293 201.811 323.084 201.775 322.892 201.705C322.701 201.635 322.531 201.535 322.382 201.406C322.238 201.281 322.123 201.143 322.037 200.99C321.951 200.834 321.88 200.629 321.826 200.375V200.357H326.127V199.666C326.127 199.201 326.062 198.777 325.933 198.395C325.804 198.008 325.617 197.678 325.371 197.404C325.121 197.131 324.816 196.92 324.457 196.771C324.101 196.619 323.695 196.543 323.238 196.543C322.796 196.543 322.388 196.623 322.013 196.783C321.638 196.943 321.314 197.168 321.041 197.457C320.767 197.746 320.554 198.092 320.402 198.494C320.25 198.893 320.173 199.334 320.173 199.818V200.053C320.173 200.479 320.25 200.879 320.402 201.254C320.558 201.625 320.779 201.947 321.064 202.221C321.349 202.498 321.691 202.717 322.089 202.877C322.488 203.037 322.931 203.117 323.42 203.117ZM323.226 197.861C323.433 197.861 323.615 197.895 323.771 197.961C323.931 198.023 324.066 198.109 324.175 198.219C324.285 198.332 324.371 198.465 324.433 198.617C324.496 198.77 324.527 198.932 324.527 199.104V199.232H321.855C321.894 199.025 321.953 198.838 322.031 198.67C322.109 198.502 322.207 198.357 322.324 198.236C322.437 198.115 322.57 198.023 322.722 197.961C322.875 197.895 323.043 197.861 323.226 197.861Z" fill="white"/>
<path d="M84.4995 100.5L109.5 57.1988L159.499 57.1988L184.499 100.5L159.499 143.801L109.5 143.801L84.4995 100.5Z" fill="#48A4C8"/>
<path d="M115.397 101.871H116.668C117.133 101.871 117.553 101.805 117.928 101.672C118.303 101.539 118.624 101.354 118.889 101.115C119.151 100.881 119.352 100.602 119.493 100.277C119.637 99.9532 119.709 99.5997 119.709 99.2168C119.709 98.8067 119.637 98.4336 119.493 98.0977C119.352 97.7618 119.151 97.4727 118.889 97.2305C118.624 96.9922 118.303 96.8067 117.928 96.6739C117.553 96.5372 117.133 96.4688 116.668 96.4688H113.75V105H115.397V101.871ZM115.397 100.535V97.8047H116.668C116.903 97.8047 117.106 97.8419 117.278 97.9161C117.45 97.9903 117.594 98.0919 117.711 98.2208C117.825 98.3497 117.909 98.5001 117.963 98.6719C118.022 98.8438 118.051 99.0294 118.051 99.2286C118.051 99.4004 118.022 99.5665 117.963 99.7266C117.909 99.8829 117.825 100.022 117.711 100.143C117.594 100.264 117.45 100.359 117.278 100.43C117.106 100.5 116.903 100.535 116.668 100.535H115.397ZM121.913 107.561C122.241 107.561 122.524 107.506 122.762 107.397C123.004 107.287 123.209 107.152 123.377 106.992C123.545 106.832 123.684 106.658 123.793 106.471C123.907 106.283 123.999 106.109 124.069 105.949L127.286 98.6602H125.487L124.04 102.387L123.799 103.02L123.624 102.375L122.17 98.6602H120.389L123.073 104.731L122.698 105.428C122.651 105.514 122.61 105.58 122.575 105.627C122.543 105.674 122.493 105.744 122.422 105.838C122.352 105.932 122.266 106.018 122.165 106.096C122.067 106.178 121.954 106.219 121.825 106.219C121.762 106.219 121.678 106.215 121.573 106.207C121.471 106.203 121.387 106.201 121.321 106.201L121.122 107.443C121.262 107.482 121.389 107.512 121.502 107.531C121.62 107.551 121.756 107.561 121.913 107.561ZM131.106 97.1075H129.477V98.6602H128.03V99.8614H129.477V102.744C129.477 103.162 129.532 103.522 129.641 103.822C129.75 104.119 129.907 104.363 130.11 104.555C130.309 104.75 130.549 104.895 130.831 104.988C131.116 105.078 131.432 105.123 131.78 105.123C131.959 105.123 132.141 105.113 132.325 105.094C132.512 105.078 132.692 105.055 132.864 105.023C133.036 104.992 133.198 104.953 133.35 104.906C133.502 104.856 133.635 104.797 133.749 104.731L133.59 103.611C133.516 103.631 133.426 103.65 133.321 103.67C133.219 103.69 133.11 103.707 132.993 103.723C132.872 103.742 132.745 103.758 132.612 103.77C132.483 103.781 132.356 103.787 132.231 103.787C132.059 103.787 131.903 103.768 131.762 103.729C131.625 103.69 131.508 103.623 131.411 103.529C131.313 103.44 131.237 103.318 131.182 103.166C131.131 103.01 131.106 102.816 131.106 102.586V99.8614H133.473V98.6602H131.106V97.1075ZM136.954 99.5333V96.0001H135.325V105H136.954V100.424C137.016 100.342 137.084 100.268 137.159 100.201C137.237 100.135 137.323 100.078 137.416 100.031C137.518 99.9766 137.631 99.9356 137.756 99.9083C137.881 99.8809 138.016 99.8672 138.161 99.8672C138.348 99.8672 138.516 99.8926 138.665 99.9434C138.813 99.9903 138.94 100.065 139.045 100.166C139.151 100.268 139.231 100.4 139.286 100.565C139.344 100.729 139.374 100.924 139.374 101.15V105H141.002V101.162C141.002 100.697 140.946 100.301 140.832 99.9727C140.723 99.6407 140.569 99.3692 140.37 99.1583C140.17 98.9473 139.932 98.793 139.655 98.6954C139.377 98.5938 139.073 98.543 138.741 98.543C138.514 98.543 138.299 98.5762 138.096 98.6426C137.893 98.709 137.707 98.8028 137.54 98.9239C137.43 99.002 137.325 99.0938 137.223 99.1993C137.125 99.3008 137.036 99.4122 136.954 99.5333ZM142.309 101.772V101.895C142.309 102.359 142.375 102.789 142.508 103.184C142.641 103.574 142.836 103.914 143.094 104.203C143.348 104.492 143.661 104.719 144.032 104.883C144.407 105.043 144.832 105.123 145.309 105.123C145.782 105.123 146.204 105.043 146.575 104.883C146.946 104.719 147.258 104.492 147.512 104.203C147.766 103.914 147.959 103.574 148.092 103.184C148.225 102.789 148.291 102.359 148.291 101.895V101.772C148.291 101.311 148.225 100.885 148.092 100.494C147.959 100.1 147.766 99.7579 147.512 99.4688C147.254 99.1797 146.94 98.9532 146.569 98.7891C146.198 98.6251 145.774 98.543 145.297 98.543C144.821 98.543 144.397 98.6251 144.026 98.7891C143.659 98.9532 143.348 99.1797 143.094 99.4688C142.836 99.7579 142.641 100.1 142.508 100.494C142.375 100.885 142.309 101.311 142.309 101.772ZM143.938 101.895V101.772C143.938 101.514 143.963 101.27 144.014 101.039C144.065 100.809 144.145 100.606 144.254 100.43C144.364 100.254 144.504 100.115 144.676 100.014C144.848 99.9122 145.055 99.8614 145.297 99.8614C145.543 99.8614 145.752 99.9122 145.924 100.014C146.096 100.115 146.237 100.254 146.346 100.43C146.452 100.606 146.53 100.809 146.581 101.039C146.631 101.27 146.657 101.514 146.657 101.772V101.895C146.657 102.16 146.631 102.41 146.581 102.645C146.53 102.875 146.452 103.076 146.346 103.248C146.237 103.424 146.096 103.563 145.924 103.664C145.752 103.766 145.547 103.816 145.309 103.816C145.063 103.816 144.852 103.766 144.676 103.664C144.504 103.563 144.364 103.424 144.254 103.248C144.145 103.076 144.065 102.875 144.014 102.645C143.963 102.41 143.938 102.16 143.938 101.895ZM149.739 105H151.373V100.494C151.428 100.408 151.489 100.33 151.555 100.26C151.622 100.19 151.696 100.129 151.778 100.078C151.879 100.008 151.995 99.9551 152.123 99.92C152.256 99.8848 152.401 99.8672 152.557 99.8672C152.745 99.8672 152.913 99.8868 153.061 99.9258C153.209 99.961 153.336 100.025 153.442 100.119C153.547 100.213 153.627 100.342 153.682 100.506C153.741 100.666 153.77 100.871 153.77 101.121V105H155.399V101.098C155.399 100.637 155.344 100.246 155.235 99.9258C155.129 99.6016 154.981 99.336 154.79 99.129C154.594 98.9258 154.364 98.7774 154.098 98.6836C153.832 98.5899 153.54 98.543 153.219 98.543C152.969 98.543 152.733 98.5782 152.51 98.6485C152.288 98.7188 152.082 98.8204 151.895 98.9532C151.786 99.0313 151.682 99.1192 151.584 99.2168C151.487 99.3145 151.397 99.4219 151.315 99.5391L151.215 98.6602H149.739V105Z" fill="white"/>
<path d="M166.5 50.5001L191.5 7.19881L241.499 7.19881L266.499 50.5001L241.499 93.8013L191.5 93.8013L166.5 50.5001Z" fill="#48A4C8"/>
<path d="M197.965 52.3282H196.319C196.303 52.586 196.26 52.8067 196.19 52.9903C196.12 53.1739 196.024 53.3243 195.903 53.4415C195.782 53.5586 195.635 53.6446 195.463 53.6993C195.291 53.754 195.098 53.7813 194.883 53.7813C194.723 53.7813 194.577 53.7637 194.444 53.7286C194.315 53.6895 194.198 53.6309 194.092 53.5528C193.995 53.4825 193.907 53.3946 193.829 53.2891C193.754 53.1836 193.69 53.0626 193.635 52.9258C193.557 52.7266 193.499 52.4942 193.459 52.2286C193.424 51.959 193.407 51.6543 193.407 51.3145V50.1543C193.407 49.9043 193.418 49.6719 193.442 49.4571C193.465 49.2383 193.502 49.0391 193.553 48.8594C193.62 48.629 193.708 48.4278 193.817 48.2559C193.93 48.0801 194.067 47.9454 194.227 47.8516C194.321 47.7969 194.422 47.7559 194.532 47.7286C194.645 47.7012 194.766 47.6876 194.895 47.6876C195.137 47.6876 195.344 47.7208 195.516 47.7872C195.692 47.8497 195.838 47.9434 195.956 48.0684C196.069 48.1973 196.155 48.3575 196.213 48.5489C196.276 48.7403 196.315 48.9629 196.331 49.2168H197.971C197.932 48.7715 197.838 48.3711 197.69 48.0157C197.541 47.6602 197.338 47.3594 197.081 47.1133C196.823 46.8672 196.51 46.6778 196.143 46.545C195.78 46.4122 195.364 46.3458 194.895 46.3458C194.579 46.3458 194.282 46.3868 194.004 46.4688C193.731 46.5469 193.479 46.6602 193.249 46.8086C192.991 46.9844 192.76 47.1993 192.557 47.4532C192.354 47.7071 192.19 47.9961 192.065 48.3204C191.956 48.586 191.874 48.8751 191.819 49.1876C191.764 49.4961 191.737 49.8223 191.737 50.1661V51.3145C191.737 51.6817 191.766 52.0293 191.825 52.3575C191.887 52.6856 191.975 52.9864 192.088 53.2598C192.206 53.5333 192.348 53.7833 192.516 54.0098C192.688 54.2364 192.883 54.4297 193.102 54.5899C193.34 54.7618 193.608 54.8946 193.905 54.9883C194.206 55.0782 194.532 55.1231 194.883 55.1231C195.329 55.1231 195.735 55.0586 196.102 54.9297C196.469 54.7969 196.786 54.6094 197.051 54.3672C197.317 54.125 197.528 53.8321 197.684 53.4883C197.844 53.1446 197.938 52.7579 197.965 52.3282ZM208.495 55.7325L211.688 46.4688H210.17L206.977 55.7325H208.495ZM226.793 52.3282H225.147C225.131 52.586 225.088 52.8067 225.018 52.9903C224.948 53.1739 224.852 53.3243 224.731 53.4415C224.61 53.5586 224.463 53.6446 224.291 53.6993C224.12 53.754 223.926 53.7813 223.711 53.7813C223.551 53.7813 223.405 53.7637 223.272 53.7286C223.143 53.6895 223.026 53.6309 222.92 53.5528C222.823 53.4825 222.735 53.3946 222.657 53.2891C222.582 53.1836 222.518 53.0626 222.463 52.9258C222.385 52.7266 222.327 52.4942 222.288 52.2286C222.252 51.959 222.235 51.6543 222.235 51.3145V50.1543C222.235 49.9043 222.247 49.6719 222.27 49.4571C222.293 49.2383 222.331 49.0391 222.381 48.8594C222.448 48.629 222.536 48.4278 222.645 48.2559C222.758 48.0801 222.895 47.9454 223.055 47.8516C223.149 47.7969 223.25 47.7559 223.36 47.7286C223.473 47.7012 223.594 47.6876 223.723 47.6876C223.965 47.6876 224.172 47.7208 224.344 47.7872C224.52 47.8497 224.666 47.9434 224.784 48.0684C224.897 48.1973 224.983 48.3575 225.041 48.5489C225.104 48.7403 225.143 48.9629 225.159 49.2168H226.799C226.76 48.7715 226.666 48.3711 226.518 48.0157C226.37 47.6602 226.166 47.3594 225.909 47.1133C225.651 46.8672 225.338 46.6778 224.971 46.545C224.608 46.4122 224.192 46.3458 223.723 46.3458C223.407 46.3458 223.11 46.3868 222.832 46.4688C222.559 46.5469 222.307 46.6602 222.077 46.8086C221.819 46.9844 221.588 47.1993 221.385 47.4532C221.182 47.7071 221.018 47.9961 220.893 48.3204C220.784 48.586 220.702 48.8751 220.647 49.1876C220.592 49.4961 220.565 49.8223 220.565 50.1661V51.3145C220.565 51.6817 220.594 52.0293 220.653 52.3575C220.715 52.6856 220.803 52.9864 220.916 53.2598C221.034 53.5333 221.176 53.7833 221.344 54.0098C221.516 54.2364 221.711 54.4297 221.93 54.5899C222.168 54.7618 222.436 54.8946 222.733 54.9883C223.034 55.0782 223.36 55.1231 223.711 55.1231C224.157 55.1231 224.563 55.0586 224.93 54.9297C225.297 54.7969 225.614 54.6094 225.879 54.3672C226.145 54.125 226.356 53.8321 226.512 53.4883C226.672 53.1446 226.766 52.7579 226.793 52.3282ZM231.592 50.2422V47.9336H230.04V50.2422H227.889V51.7305H230.04V54.1446H231.592V51.7305H233.737V50.2422H231.592ZM238.799 50.2422V47.9336H237.247V50.2422H235.096V51.7305H237.247V54.1446H238.799V51.7305H240.944V50.2422H238.799Z" fill="white"/>
<path d="M84.4995 295.5L109.5 252.199L159.499 252.199L184.499 295.5L159.499 338.801L109.5 338.801L84.4995 295.5Z" fill="#48A4C8"/>
<path d="M126.483 300V291.469H124.854V294.967H122.44V291.469H120.805V300H122.44V296.303H124.854V300H126.483ZM134.329 292.811V291.469H127.45V292.811H130.045V300H131.698V292.811H134.329ZM137.288 291.469H135.243V300H136.754V297.475L136.684 293.643L137.686 297.187H138.5L139.62 293.484L139.549 297.475V300H141.061V291.469H139.016L138.096 294.674L137.288 291.469ZM144.237 298.67V291.469H142.584V300H148.233V298.67H144.237Z" fill="white"/>
<path d="M0 249L25 205.699L75 205.699L100 249L75 292.301L25 292.301L0 249Z" fill="#2A3E4C"/>
<path d="M35.0693 250.828H33.4228C33.4072 251.086 33.3642 251.307 33.2939 251.49C33.2236 251.674 33.1279 251.824 33.0068 251.941C32.8857 252.059 32.7392 252.145 32.5674 252.199C32.3955 252.254 32.2021 252.281 31.9873 252.281C31.8271 252.281 31.6806 252.264 31.5478 252.229C31.4189 252.189 31.3017 252.131 31.1963 252.053C31.0986 251.982 31.0107 251.895 30.9326 251.789C30.8584 251.684 30.7939 251.562 30.7392 251.426C30.6611 251.227 30.6025 250.994 30.5635 250.729C30.5283 250.459 30.5107 250.154 30.5107 249.814V248.654C30.5107 248.404 30.5224 248.172 30.5459 247.957C30.5693 247.738 30.6064 247.539 30.6572 247.359C30.7236 247.129 30.8115 246.928 30.9209 246.756C31.0342 246.58 31.1709 246.445 31.331 246.352C31.4248 246.297 31.5264 246.256 31.6357 246.229C31.749 246.201 31.8701 246.187 31.999 246.187C32.2412 246.187 32.4482 246.221 32.6201 246.287C32.7959 246.35 32.9424 246.443 33.0596 246.568C33.1728 246.697 33.2588 246.857 33.3174 247.049C33.3799 247.24 33.4189 247.463 33.4346 247.717H35.0752C35.0361 247.271 34.9424 246.871 34.7939 246.516C34.6455 246.16 34.4424 245.859 34.1846 245.613C33.9267 245.367 33.6142 245.178 33.2471 245.045C32.8838 244.912 32.4678 244.846 31.999 244.846C31.6826 244.846 31.3857 244.887 31.1084 244.969C30.8349 245.047 30.583 245.16 30.3525 245.309C30.0947 245.484 29.8642 245.699 29.6611 245.953C29.458 246.207 29.2939 246.496 29.1689 246.82C29.0596 247.086 28.9775 247.375 28.9228 247.687C28.8682 247.996 28.8408 248.322 28.8408 248.666V249.814C28.8408 250.182 28.8701 250.529 28.9287 250.857C28.9912 251.186 29.0791 251.486 29.1924 251.76C29.3096 252.033 29.4521 252.283 29.6201 252.51C29.792 252.736 29.9873 252.93 30.206 253.09C30.4443 253.262 30.7119 253.395 31.0088 253.488C31.3096 253.578 31.6357 253.623 31.9873 253.623C32.4326 253.623 32.8389 253.559 33.206 253.43C33.5732 253.297 33.8896 253.109 34.1553 252.867C34.4209 252.625 34.6318 252.332 34.7881 251.988C34.9482 251.645 35.042 251.258 35.0693 250.828ZM42.3056 249.861V248.619C42.3056 248.232 42.2685 247.867 42.1943 247.523C42.124 247.18 42.0205 246.863 41.8838 246.574C41.7588 246.32 41.6084 246.088 41.4326 245.877C41.2607 245.666 41.0595 245.486 40.8291 245.338C40.5986 245.182 40.3388 245.062 40.0498 244.98C39.7646 244.895 39.458 244.852 39.1299 244.852C38.8056 244.852 38.5049 244.893 38.2275 244.975C37.9502 245.057 37.7002 245.174 37.4775 245.326C37.251 245.482 37.0498 245.67 36.874 245.889C36.7021 246.107 36.5556 246.352 36.4346 246.621C36.3096 246.906 36.2138 247.217 36.1474 247.553C36.0849 247.889 36.0537 248.244 36.0537 248.619V249.861C36.0537 250.213 36.081 250.547 36.1357 250.863C36.1943 251.18 36.2783 251.473 36.3877 251.742C36.5088 252.035 36.6592 252.299 36.8388 252.533C37.0185 252.764 37.2217 252.961 37.4482 253.125C37.6787 253.281 37.9346 253.402 38.2158 253.488C38.4971 253.574 38.8037 253.617 39.1357 253.617C39.4482 253.617 39.7392 253.578 40.0088 253.5C40.2822 253.426 40.5322 253.32 40.7588 253.184C41.0088 253.027 41.2314 252.832 41.4267 252.598C41.622 252.363 41.7861 252.105 41.9189 251.824C42.0439 251.543 42.1396 251.238 42.206 250.91C42.2724 250.578 42.3056 250.229 42.3056 249.861ZM40.6357 248.607V249.861C40.6357 250.072 40.624 250.275 40.6006 250.471C40.581 250.666 40.5498 250.846 40.5068 251.01C40.4521 251.221 40.3779 251.41 40.2842 251.578C40.1943 251.742 40.083 251.879 39.9502 251.988C39.8447 252.078 39.7236 252.146 39.5869 252.193C39.4502 252.24 39.2998 252.264 39.1357 252.264C38.9638 252.264 38.8096 252.238 38.6728 252.187C38.54 252.137 38.4209 252.064 38.3154 251.971C38.2021 251.865 38.1025 251.729 38.0166 251.561C37.9346 251.389 37.8721 251.199 37.8291 250.992C37.79 250.828 37.7627 250.65 37.7471 250.459C37.7314 250.268 37.7236 250.068 37.7236 249.861V248.607C37.7236 248.389 37.7314 248.18 37.7471 247.98C37.7666 247.781 37.7959 247.598 37.8349 247.43C37.8857 247.211 37.956 247.02 38.0459 246.855C38.1396 246.691 38.2529 246.555 38.3857 246.445C38.4834 246.371 38.5928 246.314 38.7138 246.275C38.8388 246.236 38.9775 246.217 39.1299 246.217C39.29 246.217 39.4346 246.238 39.5635 246.281C39.6963 246.324 39.8154 246.385 39.9209 246.463C40.0537 246.568 40.1689 246.705 40.2666 246.873C40.3642 247.037 40.4424 247.225 40.501 247.436C40.5478 247.604 40.581 247.787 40.6006 247.986C40.624 248.182 40.6357 248.389 40.6357 248.607ZM45.581 244.969H43.5361V253.5H45.0478V250.975L44.9775 247.143L45.9795 250.687H46.7939L47.9131 246.984L47.8427 250.975V253.5H49.3545V244.969H47.3095L46.3896 248.174L45.581 244.969ZM55.1963 251.273C55.1963 251.426 55.165 251.566 55.1025 251.695C55.04 251.82 54.9502 251.928 54.833 252.018C54.7158 252.107 54.5713 252.178 54.3994 252.229C54.2314 252.279 54.0381 252.305 53.8193 252.305C53.5732 252.305 53.3467 252.277 53.1396 252.223C52.9365 252.168 52.7627 252.082 52.6181 251.965C52.4697 251.848 52.3545 251.697 52.2724 251.514C52.1904 251.33 52.1455 251.109 52.1377 250.852H50.5205C50.5205 251.293 50.6045 251.678 50.7724 252.006C50.9443 252.334 51.1767 252.619 51.4697 252.861C51.7783 253.107 52.1396 253.295 52.5537 253.424C52.9717 253.549 53.3935 253.611 53.8193 253.611C54.2529 253.611 54.6533 253.561 55.0205 253.459C55.3877 253.354 55.7041 253.199 55.9697 252.996C56.2353 252.797 56.4424 252.553 56.5908 252.264C56.7431 251.971 56.8193 251.637 56.8193 251.262C56.8193 250.828 56.7197 250.445 56.5205 250.113C56.3213 249.781 56.0537 249.49 55.7177 249.24C55.4951 249.088 55.2509 248.953 54.9853 248.836C54.7197 248.719 54.4404 248.619 54.1474 248.537C53.874 248.463 53.6279 248.383 53.4092 248.297C53.1943 248.211 53.0107 248.115 52.8584 248.01C52.706 247.908 52.5888 247.793 52.5068 247.664C52.4287 247.535 52.3896 247.391 52.3896 247.23C52.3896 247.078 52.4189 246.937 52.4775 246.809C52.54 246.676 52.6299 246.561 52.747 246.463C52.8642 246.369 53.0068 246.297 53.1748 246.246C53.3467 246.191 53.542 246.164 53.7607 246.164C53.999 246.164 54.206 246.197 54.3818 246.264C54.5615 246.326 54.7119 246.414 54.833 246.527C54.9502 246.645 55.0381 246.783 55.0966 246.943C55.1591 247.104 55.1943 247.279 55.2021 247.471H56.8076C56.8076 247.088 56.7334 246.736 56.5849 246.416C56.4365 246.096 56.2295 245.818 55.9638 245.584C55.6982 245.354 55.3799 245.174 55.0088 245.045C54.6416 244.916 54.2353 244.852 53.79 244.852C53.3603 244.852 52.9619 244.908 52.5947 245.021C52.2275 245.131 51.9092 245.289 51.6396 245.496C51.3701 245.703 51.1592 245.953 51.0068 246.246C50.8545 246.539 50.7783 246.865 50.7783 247.225C50.7783 247.537 50.8349 247.826 50.9482 248.092C51.0654 248.357 51.2373 248.6 51.4638 248.818C51.6904 249.037 51.9814 249.238 52.3369 249.422C52.6963 249.605 53.1123 249.762 53.5849 249.891C53.8896 249.973 54.1435 250.062 54.3467 250.16C54.5537 250.254 54.7217 250.357 54.8506 250.471C54.9756 250.588 55.0634 250.713 55.1142 250.846C55.1689 250.979 55.1963 251.121 55.1963 251.273ZM63.9267 249.861V248.619C63.9267 248.232 63.8896 247.867 63.8154 247.523C63.7451 247.18 63.6416 246.863 63.5048 246.574C63.3798 246.32 63.2295 246.088 63.0537 245.877C62.8818 245.666 62.6806 245.486 62.4502 245.338C62.2197 245.182 61.9599 245.062 61.6709 244.98C61.3857 244.895 61.0791 244.852 60.7509 244.852C60.4267 244.852 60.1259 244.893 59.8486 244.975C59.5713 245.057 59.3213 245.174 59.0986 245.326C58.872 245.482 58.6709 245.67 58.4951 245.889C58.3232 246.107 58.1767 246.352 58.0556 246.621C57.9306 246.906 57.8349 247.217 57.7685 247.553C57.706 247.889 57.6748 248.244 57.6748 248.619V249.861C57.6748 250.213 57.7021 250.547 57.7568 250.863C57.8154 251.18 57.8994 251.473 58.0088 251.742C58.1299 252.035 58.2802 252.299 58.4599 252.533C58.6396 252.764 58.8427 252.961 59.0693 253.125C59.2998 253.281 59.5556 253.402 59.8369 253.488C60.1181 253.574 60.4248 253.617 60.7568 253.617C61.0693 253.617 61.3603 253.578 61.6298 253.5C61.9033 253.426 62.1533 253.32 62.3798 253.184C62.6298 253.027 62.8525 252.832 63.0478 252.598C63.2431 252.363 63.4072 252.105 63.54 251.824C63.665 251.543 63.7607 251.238 63.8271 250.91C63.8935 250.578 63.9267 250.229 63.9267 249.861ZM62.2568 248.607V249.861C62.2568 250.072 62.2451 250.275 62.2216 250.471C62.2021 250.666 62.1709 250.846 62.1279 251.01C62.0732 251.221 61.999 251.41 61.9052 251.578C61.8154 251.742 61.7041 251.879 61.5713 251.988C61.4658 252.078 61.3447 252.146 61.208 252.193C61.0713 252.24 60.9209 252.264 60.7568 252.264C60.5849 252.264 60.4306 252.238 60.2939 252.187C60.1611 252.137 60.042 252.064 59.9365 251.971C59.8232 251.865 59.7236 251.729 59.6377 251.561C59.5556 251.389 59.4931 251.199 59.4502 250.992C59.4111 250.828 59.3838 250.65 59.3681 250.459C59.3525 250.268 59.3447 250.068 59.3447 249.861V248.607C59.3447 248.389 59.3525 248.18 59.3681 247.98C59.3877 247.781 59.417 247.598 59.456 247.43C59.5068 247.211 59.5771 247.02 59.667 246.855C59.7607 246.691 59.874 246.555 60.0068 246.445C60.1045 246.371 60.2138 246.314 60.3349 246.275C60.4599 246.236 60.5986 246.217 60.7509 246.217C60.9111 246.217 61.0556 246.238 61.1845 246.281C61.3173 246.324 61.4365 246.385 61.542 246.463C61.6748 246.568 61.79 246.705 61.8877 246.873C61.9853 247.037 62.0634 247.225 62.122 247.436C62.1689 247.604 62.2021 247.787 62.2216 247.986C62.2451 248.182 62.2568 248.389 62.2568 248.607ZM66.9443 252.17V244.969H65.292V253.5H70.9404V252.17H66.9443Z" fill="white"/>
<path d="M0 345L25 301.699L75 301.699L100 345L75 388.301L25 388.301L0 345Z" fill="#48A4C8"/>
<path d="M18.7568 340.969V346.881C18.7568 347.08 18.7256 347.268 18.6631 347.443C18.6045 347.615 18.5205 347.764 18.4111 347.889C18.3018 348.014 18.1689 348.113 18.0127 348.187C17.8564 348.258 17.6846 348.293 17.4971 348.293C17.2627 348.293 17.0635 348.262 16.8994 348.199C16.7353 348.137 16.6025 348.041 16.501 347.912C16.4228 347.807 16.3643 347.678 16.3252 347.525C16.2861 347.373 16.2666 347.195 16.2666 346.992H14.6143C14.6182 347.434 14.6904 347.818 14.8311 348.146C14.9717 348.475 15.1689 348.746 15.4228 348.961C15.6728 349.18 15.9736 349.344 16.3252 349.453C16.6768 349.562 17.0674 349.617 17.4971 349.617C17.9033 349.617 18.2822 349.551 18.6338 349.418C18.9893 349.285 19.2978 349.098 19.5596 348.855C19.8213 348.613 20.0264 348.326 20.1748 347.994C20.3271 347.658 20.4053 347.287 20.4092 346.881L20.4033 340.969H18.7568ZM25.958 349.5H27.6103V349.4C27.5283 349.24 27.4658 349.049 27.4228 348.826C27.3799 348.603 27.3584 348.322 27.3584 347.982V345.264C27.3584 344.896 27.29 344.574 27.1533 344.297C27.0166 344.016 26.8271 343.783 26.5849 343.6C26.3428 343.416 26.0557 343.277 25.7236 343.184C25.3955 343.09 25.04 343.043 24.6572 343.043C24.2314 343.043 23.8525 343.098 23.5205 343.207C23.1924 343.312 22.915 343.457 22.6885 343.641C22.458 343.824 22.2822 344.037 22.1611 344.279C22.0439 344.521 21.9853 344.777 21.9853 345.047H23.6142C23.6142 344.934 23.6299 344.83 23.6611 344.736C23.6963 344.643 23.749 344.562 23.8193 344.496C23.8975 344.422 23.999 344.365 24.124 344.326C24.249 344.283 24.3975 344.262 24.5693 344.262C24.7646 344.262 24.9346 344.287 25.0791 344.338C25.2275 344.385 25.3506 344.453 25.4482 344.543C25.542 344.629 25.6123 344.732 25.6592 344.853C25.706 344.971 25.7295 345.103 25.7295 345.252V345.627H24.8213C24.3525 345.627 23.9365 345.67 23.5732 345.756C23.2139 345.838 22.9111 345.959 22.665 346.119C22.3916 346.295 22.1865 346.519 22.0498 346.793C21.9131 347.062 21.8447 347.373 21.8447 347.725C21.8447 347.998 21.8994 348.252 22.0088 348.486C22.1182 348.717 22.2705 348.916 22.4658 349.084C22.6611 349.252 22.8935 349.383 23.1631 349.476C23.4365 349.57 23.7353 349.617 24.0596 349.617C24.2588 349.617 24.4443 349.598 24.6162 349.559C24.7881 349.523 24.9463 349.473 25.0908 349.406C25.2314 349.344 25.3603 349.269 25.4775 349.184C25.5947 349.098 25.6982 349.006 25.7881 348.908C25.8076 349.021 25.831 349.129 25.8584 349.23C25.8857 349.332 25.9189 349.422 25.958 349.5ZM24.4053 348.357C24.2529 348.357 24.1182 348.34 24.001 348.305C23.8877 348.266 23.792 348.215 23.7139 348.152C23.6357 348.086 23.5752 348.006 23.5322 347.912C23.4932 347.814 23.4736 347.709 23.4736 347.596C23.4736 347.451 23.501 347.318 23.5557 347.197C23.6103 347.072 23.6943 346.965 23.8076 346.875C23.9209 346.789 24.0674 346.723 24.2471 346.676C24.4267 346.625 24.6435 346.6 24.8975 346.6H25.7295V347.689C25.6826 347.771 25.6182 347.853 25.5361 347.935C25.4541 348.014 25.3564 348.084 25.2432 348.146C25.1299 348.209 25.0029 348.26 24.8623 348.299C24.7217 348.338 24.5693 348.357 24.4053 348.357ZM31.2197 349.5H32.749L35.1572 343.16H33.458L32.0693 347.631L31.9814 348.076L31.8935 347.631L30.499 343.16H28.7998L31.2197 349.5ZM40.3721 349.5H42.0244V349.4C41.9424 349.24 41.8799 349.049 41.8369 348.826C41.7939 348.603 41.7724 348.322 41.7724 347.982V345.264C41.7724 344.896 41.7041 344.574 41.5674 344.297C41.4306 344.016 41.2412 343.783 40.999 343.6C40.7568 343.416 40.4697 343.277 40.1377 343.184C39.8096 343.09 39.4541 343.043 39.0713 343.043C38.6455 343.043 38.2666 343.098 37.9346 343.207C37.6064 343.312 37.3291 343.457 37.1025 343.641C36.8721 343.824 36.6963 344.037 36.5752 344.279C36.458 344.521 36.3994 344.777 36.3994 345.047H38.0283C38.0283 344.934 38.0439 344.83 38.0752 344.736C38.1103 344.643 38.1631 344.562 38.2334 344.496C38.3115 344.422 38.4131 344.365 38.5381 344.326C38.6631 344.283 38.8115 344.262 38.9834 344.262C39.1787 344.262 39.3486 344.287 39.4931 344.338C39.6416 344.385 39.7646 344.453 39.8623 344.543C39.956 344.629 40.0263 344.732 40.0732 344.853C40.1201 344.971 40.1435 345.103 40.1435 345.252V345.627H39.2353C38.7666 345.627 38.3506 345.67 37.9873 345.756C37.6279 345.838 37.3252 345.959 37.0791 346.119C36.8056 346.295 36.6006 346.519 36.4638 346.793C36.3271 347.062 36.2588 347.373 36.2588 347.725C36.2588 347.998 36.3135 348.252 36.4228 348.486C36.5322 348.717 36.6846 348.916 36.8799 349.084C37.0752 349.252 37.3076 349.383 37.5771 349.476C37.8506 349.57 38.1494 349.617 38.4736 349.617C38.6728 349.617 38.8584 349.598 39.0303 349.559C39.2021 349.523 39.3603 349.473 39.5049 349.406C39.6455 349.344 39.7744 349.269 39.8916 349.184C40.0088 349.098 40.1123 349.006 40.2021 348.908C40.2217 349.021 40.2451 349.129 40.2724 349.23C40.2998 349.332 40.333 349.422 40.3721 349.5ZM38.8193 348.357C38.667 348.357 38.5322 348.34 38.415 348.305C38.3017 348.266 38.206 348.215 38.1279 348.152C38.0498 348.086 37.9892 348.006 37.9463 347.912C37.9072 347.814 37.8877 347.709 37.8877 347.596C37.8877 347.451 37.915 347.318 37.9697 347.197C38.0244 347.072 38.1084 346.965 38.2217 346.875C38.3349 346.789 38.4814 346.723 38.6611 346.676C38.8408 346.625 39.0576 346.6 39.3115 346.6H40.1435V347.689C40.0967 347.771 40.0322 347.853 39.9502 347.935C39.8681 348.014 39.7705 348.084 39.6572 348.146C39.5439 348.209 39.417 348.26 39.2763 348.299C39.1357 348.338 38.9834 348.357 38.8193 348.357ZM47.9892 347.273C47.9892 347.426 47.958 347.566 47.8955 347.695C47.833 347.82 47.7431 347.928 47.626 348.018C47.5088 348.107 47.3642 348.178 47.1924 348.228C47.0244 348.279 46.831 348.305 46.6123 348.305C46.3662 348.305 46.1396 348.277 45.9326 348.223C45.7295 348.168 45.5556 348.082 45.4111 347.965C45.2627 347.848 45.1474 347.697 45.0654 347.514C44.9834 347.33 44.9385 347.109 44.9306 346.851H43.3135C43.3135 347.293 43.3974 347.678 43.5654 348.006C43.7373 348.334 43.9697 348.619 44.2627 348.861C44.5713 349.107 44.9326 349.295 45.3467 349.424C45.7646 349.549 46.1865 349.611 46.6123 349.611C47.0459 349.611 47.4463 349.56 47.8135 349.459C48.1806 349.353 48.497 349.199 48.7627 348.996C49.0283 348.797 49.2353 348.553 49.3838 348.264C49.5361 347.971 49.6123 347.637 49.6123 347.262C49.6123 346.828 49.5127 346.445 49.3135 346.113C49.1142 345.781 48.8467 345.49 48.5107 345.24C48.2881 345.088 48.0439 344.953 47.7783 344.836C47.5127 344.719 47.2334 344.619 46.9404 344.537C46.667 344.463 46.4209 344.383 46.2021 344.297C45.9873 344.211 45.8037 344.115 45.6513 344.01C45.499 343.908 45.3818 343.793 45.2998 343.664C45.2217 343.535 45.1826 343.391 45.1826 343.23C45.1826 343.078 45.2119 342.937 45.2705 342.809C45.333 342.676 45.4228 342.56 45.54 342.463C45.6572 342.369 45.7998 342.297 45.9677 342.246C46.1396 342.191 46.3349 342.164 46.5537 342.164C46.792 342.164 46.999 342.197 47.1748 342.264C47.3545 342.326 47.5049 342.414 47.626 342.527C47.7431 342.644 47.831 342.783 47.8896 342.943C47.9521 343.103 47.9873 343.279 47.9951 343.471H49.6006C49.6006 343.088 49.5263 342.736 49.3779 342.416C49.2295 342.096 49.0224 341.818 48.7568 341.584C48.4912 341.353 48.1728 341.174 47.8017 341.045C47.4345 340.916 47.0283 340.851 46.583 340.851C46.1533 340.851 45.7549 340.908 45.3877 341.021C45.0205 341.131 44.7021 341.289 44.4326 341.496C44.1631 341.703 43.9521 341.953 43.7998 342.246C43.6474 342.539 43.5713 342.865 43.5713 343.225C43.5713 343.537 43.6279 343.826 43.7412 344.092C43.8584 344.357 44.0303 344.6 44.2568 344.818C44.4834 345.037 44.7744 345.238 45.1299 345.422C45.4892 345.605 45.9052 345.762 46.3779 345.891C46.6826 345.973 46.9365 346.062 47.1396 346.16C47.3467 346.254 47.5146 346.357 47.6435 346.471C47.7685 346.588 47.8564 346.713 47.9072 346.846C47.9619 346.978 47.9892 347.121 47.9892 347.273ZM53.6318 348.316C53.3701 348.316 53.1533 348.264 52.9814 348.158C52.8134 348.053 52.6806 347.912 52.583 347.736C52.4814 347.564 52.4111 347.365 52.372 347.139C52.333 346.908 52.3134 346.67 52.3134 346.424V346.248C52.3134 346.006 52.333 345.771 52.372 345.545C52.415 345.318 52.4873 345.117 52.5888 344.941C52.6865 344.766 52.8193 344.625 52.9873 344.519C53.1552 344.414 53.3681 344.361 53.6259 344.361C53.8017 344.361 53.9638 344.393 54.1123 344.455C54.2607 344.514 54.3877 344.594 54.4931 344.695C54.5986 344.797 54.6787 344.918 54.7334 345.059C54.7881 345.199 54.8115 345.348 54.8037 345.504H56.3388C56.3466 345.129 56.2841 344.791 56.1513 344.49C56.0185 344.185 55.833 343.926 55.5947 343.711C55.3525 343.5 55.0654 343.336 54.7334 343.219C54.4013 343.101 54.04 343.043 53.6494 343.043C53.1611 343.043 52.7314 343.127 52.3603 343.295C51.9931 343.463 51.6845 343.691 51.4345 343.98C51.1845 344.269 50.997 344.609 50.872 345C50.747 345.387 50.6845 345.803 50.6845 346.248V346.424C50.6845 346.869 50.747 347.287 50.872 347.678C51.0009 348.064 51.1904 348.402 51.4404 348.691C51.6865 348.98 51.9951 349.209 52.3662 349.377C52.7373 349.541 53.1689 349.623 53.6611 349.623C54.0244 349.623 54.3681 349.566 54.6924 349.453C55.0205 349.336 55.3076 349.176 55.5537 348.973C55.7998 348.769 55.9931 348.527 56.1338 348.246C56.2783 347.965 56.3466 347.66 56.3388 347.332H54.8037C54.8115 347.48 54.7841 347.615 54.7217 347.736C54.6631 347.857 54.5791 347.961 54.4697 348.047C54.3603 348.133 54.2334 348.199 54.0888 348.246C53.9443 348.293 53.792 348.316 53.6318 348.316ZM62.5849 343.043C62.1591 343.043 61.7666 343.146 61.4072 343.353C61.0478 343.557 60.7392 343.838 60.4814 344.197L60.4697 344.057L60.4052 343.16H58.8877V349.5H60.5166V345.691C60.5908 345.512 60.6845 345.355 60.7978 345.223C60.9111 345.09 61.0478 344.98 61.208 344.894C61.3408 344.82 61.4912 344.766 61.6591 344.73C61.831 344.691 62.0224 344.672 62.2334 344.672C62.4365 344.672 62.6494 344.685 62.872 344.713C63.0986 344.736 63.3193 344.773 63.5341 344.824L63.7744 343.201C63.6455 343.162 63.4756 343.127 63.2646 343.096C63.0576 343.06 62.831 343.043 62.5849 343.043ZM65.6728 343.16V344.49H67.4775V348.176H65.6728V349.5H70.8408V348.176H69.124V343.16H65.6728ZM67.3603 341.537C67.3603 341.662 67.3818 341.779 67.4248 341.889C67.4716 341.994 67.5361 342.084 67.6181 342.158C67.7002 342.236 67.7978 342.297 67.9111 342.34C68.0283 342.383 68.1572 342.404 68.2978 342.404C68.5869 342.404 68.8154 342.324 68.9834 342.164C69.1552 342 69.2412 341.791 69.2412 341.537C69.2412 341.283 69.1552 341.076 68.9834 340.916C68.8154 340.752 68.5869 340.67 68.2978 340.67C68.1572 340.67 68.0283 340.691 67.9111 340.734C67.7978 340.777 67.7002 340.836 67.6181 340.91C67.5361 340.988 67.4716 341.082 67.4248 341.191C67.3818 341.297 67.3603 341.412 67.3603 341.537ZM72.4697 351.937H74.0986V348.949C74.1728 349.031 74.2509 349.105 74.333 349.172C74.415 349.238 74.5009 349.299 74.5908 349.353C74.7431 349.439 74.9072 349.504 75.083 349.547C75.2627 349.594 75.458 349.617 75.6689 349.617C76.0673 349.617 76.4209 349.535 76.7294 349.371C77.038 349.207 77.2978 348.98 77.5087 348.691C77.7158 348.406 77.872 348.066 77.9775 347.672C78.0869 347.277 78.1416 346.85 78.1416 346.389V346.266C78.1416 345.785 78.0869 345.348 77.9775 344.953C77.872 344.555 77.7138 344.213 77.5029 343.928C77.2919 343.646 77.0322 343.43 76.7236 343.277C76.415 343.121 76.0595 343.043 75.6572 343.043C75.4619 343.043 75.2783 343.064 75.1064 343.107C74.9384 343.146 74.7841 343.203 74.6435 343.277C74.5263 343.34 74.4169 343.414 74.3154 343.5C74.2138 343.582 74.1201 343.676 74.0341 343.781L73.9755 343.16H72.4697V351.937ZM76.5127 346.266V346.389C76.5127 346.65 76.4892 346.898 76.4423 347.133C76.3955 347.363 76.3212 347.566 76.2197 347.742C76.1181 347.918 75.9853 348.057 75.8212 348.158C75.6611 348.26 75.4658 348.31 75.2353 348.31C75.0908 348.31 74.9599 348.297 74.8427 348.269C74.7255 348.238 74.622 348.195 74.5322 348.141C74.4384 348.082 74.3544 348.012 74.2802 347.93C74.2099 347.848 74.1494 347.756 74.0986 347.654V345.006C74.1533 344.896 74.2177 344.801 74.2919 344.719C74.3701 344.637 74.4599 344.568 74.5615 344.514C74.6513 344.467 74.7509 344.432 74.8603 344.408C74.9697 344.381 75.0908 344.367 75.2236 344.367C75.4541 344.367 75.6494 344.416 75.8095 344.514C75.9736 344.611 76.1084 344.744 76.2138 344.912C76.3154 345.084 76.3896 345.287 76.4365 345.521C76.4873 345.752 76.5127 346 76.5127 346.266ZM82.6416 341.607H81.0126V343.16H79.5654V344.361H81.0126V347.244C81.0126 347.662 81.0673 348.021 81.1767 348.322C81.2861 348.619 81.4423 348.863 81.6455 349.055C81.8447 349.25 82.0849 349.394 82.3662 349.488C82.6513 349.578 82.9677 349.623 83.3154 349.623C83.4951 349.623 83.6767 349.613 83.8603 349.594C84.0478 349.578 84.2275 349.555 84.3994 349.523C84.5712 349.492 84.7333 349.453 84.8857 349.406C85.038 349.355 85.1708 349.297 85.2841 349.23L85.1259 348.111C85.0517 348.131 84.9619 348.15 84.8564 348.17C84.7548 348.189 84.6455 348.207 84.5283 348.223C84.4072 348.242 84.2802 348.258 84.1474 348.269C84.0185 348.281 83.8916 348.287 83.7666 348.287C83.5947 348.287 83.4384 348.268 83.2978 348.228C83.1611 348.189 83.0439 348.123 82.9462 348.029C82.8486 347.939 82.7724 347.818 82.7177 347.666C82.6669 347.51 82.6416 347.316 82.6416 347.086V344.361H85.0087V343.16H82.6416V341.607Z" fill="white"/>
<path d="M0 151L25 107.699L75 107.699L100 151L75 194.301L25 194.301L0 151Z" fill="#2A3E4C"/>
<path d="M35.292 151.996L37.4013 155.5H39.3584L36.3818 150.742L39.2529 146.969H37.2373L35.1631 149.834L34.3896 150.877V146.969H32.7373V155.5H34.3896V152.986L35.292 151.996ZM40.4482 149.16V150.49H42.2529V154.176H40.4482V155.5H45.6162V154.176H43.8994V149.16H40.4482ZM42.1357 147.537C42.1357 147.662 42.1572 147.779 42.2002 147.889C42.247 147.994 42.3115 148.084 42.3935 148.158C42.4756 148.236 42.5732 148.297 42.6865 148.34C42.8037 148.383 42.9326 148.404 43.0732 148.404C43.3623 148.404 43.5908 148.324 43.7588 148.164C43.9306 148 44.0166 147.791 44.0166 147.537C44.0166 147.283 43.9306 147.076 43.7588 146.916C43.5908 146.752 43.3623 146.67 43.0732 146.67C42.9326 146.67 42.8037 146.691 42.6865 146.734C42.5732 146.777 42.4756 146.836 42.3935 146.91C42.3115 146.988 42.247 147.082 42.2002 147.191C42.1572 147.297 42.1357 147.412 42.1357 147.537ZM53.0869 152.828H51.4404C51.4248 153.086 51.3818 153.307 51.3115 153.49C51.2412 153.674 51.1455 153.824 51.0244 153.941C50.9033 154.059 50.7568 154.144 50.5849 154.199C50.4131 154.254 50.2197 154.281 50.0049 154.281C49.8447 154.281 49.6982 154.264 49.5654 154.228C49.4365 154.189 49.3193 154.131 49.2138 154.053C49.1162 153.982 49.0283 153.894 48.9502 153.789C48.876 153.684 48.8115 153.562 48.7568 153.426C48.6787 153.226 48.6201 152.994 48.581 152.728C48.5459 152.459 48.5283 152.154 48.5283 151.814V150.654C48.5283 150.404 48.54 150.172 48.5635 149.957C48.5869 149.738 48.624 149.539 48.6748 149.359C48.7412 149.129 48.8291 148.928 48.9385 148.756C49.0517 148.58 49.1885 148.445 49.3486 148.351C49.4424 148.297 49.5439 148.256 49.6533 148.228C49.7666 148.201 49.8877 148.187 50.0166 148.187C50.2588 148.187 50.4658 148.221 50.6377 148.287C50.8134 148.35 50.9599 148.443 51.0771 148.568C51.1904 148.697 51.2763 148.857 51.3349 149.049C51.3974 149.24 51.4365 149.463 51.4521 149.717H53.0927C53.0537 149.271 52.9599 148.871 52.8115 148.516C52.6631 148.16 52.4599 147.859 52.2021 147.613C51.9443 147.367 51.6318 147.178 51.2646 147.045C50.9013 146.912 50.4853 146.846 50.0166 146.846C49.7002 146.846 49.4033 146.887 49.126 146.969C48.8525 147.047 48.6006 147.16 48.3701 147.309C48.1123 147.484 47.8818 147.699 47.6787 147.953C47.4756 148.207 47.3115 148.496 47.1865 148.82C47.0771 149.086 46.9951 149.375 46.9404 149.687C46.8857 149.996 46.8584 150.322 46.8584 150.666V151.814C46.8584 152.182 46.8877 152.529 46.9463 152.857C47.0088 153.185 47.0967 153.486 47.2099 153.76C47.3271 154.033 47.4697 154.283 47.6377 154.51C47.8095 154.736 48.0049 154.93 48.2236 155.09C48.4619 155.262 48.7295 155.394 49.0263 155.488C49.3271 155.578 49.6533 155.623 50.0049 155.623C50.4502 155.623 50.8564 155.559 51.2236 155.43C51.5908 155.297 51.9072 155.109 52.1728 154.867C52.4384 154.625 52.6494 154.332 52.8056 153.988C52.9658 153.644 53.0595 153.258 53.0869 152.828ZM58.3896 155.5H60.042V155.4C59.9599 155.24 59.8974 155.049 59.8545 154.826C59.8115 154.603 59.79 154.322 59.79 153.982V151.264C59.79 150.896 59.7216 150.574 59.5849 150.297C59.4482 150.016 59.2588 149.783 59.0166 149.6C58.7744 149.416 58.4873 149.277 58.1552 149.184C57.8271 149.09 57.4716 149.043 57.0888 149.043C56.6631 149.043 56.2841 149.098 55.9521 149.207C55.624 149.312 55.3466 149.457 55.1201 149.641C54.8896 149.824 54.7138 150.037 54.5927 150.279C54.4756 150.521 54.417 150.777 54.417 151.047H56.0459C56.0459 150.934 56.0615 150.83 56.0927 150.736C56.1279 150.643 56.1806 150.562 56.2509 150.496C56.3291 150.422 56.4306 150.365 56.5556 150.326C56.6806 150.283 56.8291 150.262 57.0009 150.262C57.1963 150.262 57.3662 150.287 57.5107 150.338C57.6591 150.385 57.7822 150.453 57.8799 150.543C57.9736 150.629 58.0439 150.732 58.0908 150.853C58.1377 150.971 58.1611 151.103 58.1611 151.252V151.627H57.2529C56.7841 151.627 56.3681 151.67 56.0049 151.756C55.6455 151.838 55.3427 151.959 55.0966 152.119C54.8232 152.295 54.6181 152.519 54.4814 152.793C54.3447 153.062 54.2763 153.373 54.2763 153.725C54.2763 153.998 54.331 154.252 54.4404 154.486C54.5498 154.717 54.7021 154.916 54.8974 155.084C55.0927 155.252 55.3252 155.383 55.5947 155.476C55.8681 155.57 56.167 155.617 56.4912 155.617C56.6904 155.617 56.8759 155.598 57.0478 155.559C57.2197 155.523 57.3779 155.473 57.5224 155.406C57.6631 155.344 57.792 155.269 57.9091 155.184C58.0263 155.098 58.1299 155.006 58.2197 154.908C58.2392 155.021 58.2627 155.129 58.29 155.23C58.3174 155.332 58.3506 155.422 58.3896 155.5ZM56.8369 154.357C56.6845 154.357 56.5498 154.34 56.4326 154.305C56.3193 154.266 56.2236 154.215 56.1455 154.152C56.0674 154.086 56.0068 154.006 55.9638 153.912C55.9248 153.814 55.9052 153.709 55.9052 153.596C55.9052 153.451 55.9326 153.318 55.9873 153.197C56.042 153.072 56.1259 152.965 56.2392 152.875C56.3525 152.789 56.499 152.723 56.6787 152.676C56.8584 152.625 57.0752 152.6 57.3291 152.6H58.1611V153.689C58.1142 153.771 58.0498 153.853 57.9677 153.935C57.8857 154.014 57.7881 154.084 57.6748 154.146C57.5615 154.209 57.4345 154.26 57.2939 154.299C57.1533 154.338 57.0009 154.357 56.8369 154.357ZM61.4658 152.283V152.406C61.4658 152.867 61.5224 153.295 61.6357 153.689C61.749 154.08 61.9131 154.418 62.1279 154.703C62.3388 154.988 62.5966 155.213 62.9013 155.377C63.2099 155.537 63.5576 155.617 63.9443 155.617C64.2998 155.617 64.6123 155.549 64.8818 155.412C65.1513 155.275 65.3857 155.084 65.5849 154.838L65.667 155.5H67.1377V146.5H65.5029V149.728C65.3076 149.51 65.083 149.342 64.8291 149.225C64.5791 149.103 64.2881 149.043 63.956 149.043C63.5615 149.043 63.2099 149.121 62.9013 149.277C62.5966 149.434 62.3369 149.654 62.122 149.939C61.9072 150.225 61.7431 150.566 61.6298 150.965C61.5205 151.363 61.4658 151.803 61.4658 152.283ZM63.0947 152.406V152.283C63.0947 152.018 63.1181 151.769 63.165 151.539C63.2119 151.305 63.2861 151.1 63.3877 150.924C63.4892 150.752 63.6201 150.617 63.7802 150.519C63.9443 150.418 64.1416 150.367 64.372 150.367C64.6494 150.367 64.8798 150.428 65.0634 150.549C65.247 150.666 65.3935 150.832 65.5029 151.047V153.613C65.3935 153.824 65.2451 153.99 65.0576 154.111C64.874 154.232 64.6416 154.293 64.3603 154.293C64.1298 154.293 63.9345 154.244 63.7744 154.146C63.6142 154.049 63.4834 153.914 63.3818 153.742C63.2802 153.574 63.206 153.377 63.1591 153.15C63.1162 152.92 63.0947 152.672 63.0947 152.406Z" fill="white"/>
</svg>
