<svg width="591" height="267" viewBox="0 0 591 267" fill="none" xmlns="http://www.w3.org/2000/svg">
<path d="M291 167L334.301 192V242L291 267L247.699 242V192L291 167Z" fill="#48A4C8"/>
<path d="M276.271 222V213.469H274.619L274.613 218.947L272.258 213.469H270.6V222H272.258V216.498L274.631 222H276.271ZM277.689 218.771V218.894C277.689 219.359 277.756 219.789 277.889 220.184C278.021 220.574 278.217 220.914 278.475 221.203C278.729 221.492 279.041 221.719 279.412 221.883C279.787 222.043 280.213 222.123 280.689 222.123C281.162 222.123 281.584 222.043 281.955 221.883C282.326 221.719 282.639 221.492 282.893 221.203C283.146 220.914 283.34 220.574 283.473 220.184C283.605 219.789 283.672 219.359 283.672 218.894V218.771C283.672 218.31 283.605 217.885 283.473 217.494C283.34 217.1 283.146 216.758 282.893 216.469C282.635 216.18 282.32 215.953 281.949 215.789C281.578 215.625 281.154 215.543 280.678 215.543C280.201 215.543 279.777 215.625 279.406 215.789C279.039 215.953 278.729 216.18 278.475 216.469C278.217 216.758 278.021 217.1 277.889 217.494C277.756 217.885 277.689 218.31 277.689 218.771ZM279.318 218.894V218.771C279.318 218.514 279.344 218.269 279.395 218.039C279.445 217.809 279.525 217.605 279.635 217.43C279.744 217.254 279.885 217.115 280.057 217.014C280.229 216.912 280.436 216.861 280.678 216.861C280.924 216.861 281.133 216.912 281.305 217.014C281.477 217.115 281.617 217.254 281.727 217.43C281.832 217.605 281.91 217.809 281.961 218.039C282.012 218.269 282.037 218.514 282.037 218.771V218.894C282.037 219.16 282.012 219.41 281.961 219.644C281.91 219.875 281.832 220.076 281.727 220.248C281.617 220.424 281.477 220.562 281.305 220.664C281.133 220.766 280.928 220.816 280.689 220.816C280.443 220.816 280.232 220.766 280.057 220.664C279.885 220.562 279.744 220.424 279.635 220.248C279.525 220.076 279.445 219.875 279.395 219.644C279.344 219.41 279.318 219.16 279.318 218.894ZM284.949 218.783V218.906C284.949 219.367 285.006 219.795 285.119 220.189C285.232 220.58 285.396 220.918 285.611 221.203C285.822 221.488 286.08 221.713 286.385 221.877C286.693 222.037 287.041 222.117 287.428 222.117C287.783 222.117 288.096 222.049 288.365 221.912C288.635 221.775 288.869 221.584 289.068 221.338L289.15 222H290.621V213H288.986V216.228C288.791 216.01 288.566 215.842 288.312 215.725C288.062 215.603 287.771 215.543 287.439 215.543C287.045 215.543 286.693 215.621 286.385 215.777C286.08 215.934 285.82 216.154 285.605 216.439C285.391 216.725 285.227 217.066 285.113 217.465C285.004 217.863 284.949 218.303 284.949 218.783ZM286.578 218.906V218.783C286.578 218.518 286.602 218.269 286.648 218.039C286.695 217.805 286.77 217.6 286.871 217.424C286.973 217.252 287.104 217.117 287.264 217.019C287.428 216.918 287.625 216.867 287.855 216.867C288.133 216.867 288.363 216.928 288.547 217.049C288.73 217.166 288.877 217.332 288.986 217.547V220.113C288.877 220.324 288.729 220.49 288.541 220.611C288.357 220.732 288.125 220.793 287.844 220.793C287.613 220.793 287.418 220.744 287.258 220.646C287.098 220.549 286.967 220.414 286.865 220.242C286.764 220.074 286.689 219.877 286.643 219.65C286.6 219.42 286.578 219.172 286.578 218.906ZM295.402 222.117C296.016 222.117 296.547 221.998 296.996 221.76C297.445 221.521 297.773 221.256 297.98 220.963L297.166 220.084C296.979 220.326 296.734 220.508 296.434 220.629C296.133 220.75 295.822 220.81 295.502 220.81C295.275 220.81 295.066 220.775 294.875 220.705C294.684 220.635 294.514 220.535 294.365 220.406C294.221 220.281 294.105 220.143 294.02 219.99C293.934 219.834 293.863 219.629 293.809 219.375V219.357H298.109V218.666C298.109 218.201 298.045 217.777 297.916 217.394C297.787 217.008 297.6 216.678 297.354 216.404C297.104 216.131 296.799 215.92 296.439 215.771C296.084 215.619 295.678 215.543 295.221 215.543C294.779 215.543 294.371 215.623 293.996 215.783C293.621 215.943 293.297 216.168 293.023 216.457C292.75 216.746 292.537 217.092 292.385 217.494C292.232 217.893 292.156 218.334 292.156 218.818V219.053C292.156 219.478 292.232 219.879 292.385 220.254C292.541 220.625 292.762 220.947 293.047 221.221C293.332 221.498 293.674 221.717 294.072 221.877C294.471 222.037 294.914 222.117 295.402 222.117ZM295.209 216.861C295.416 216.861 295.598 216.894 295.754 216.961C295.914 217.023 296.049 217.109 296.158 217.219C296.268 217.332 296.354 217.465 296.416 217.617C296.479 217.769 296.51 217.932 296.51 218.103V218.232H293.838C293.877 218.025 293.936 217.838 294.014 217.67C294.092 217.502 294.189 217.357 294.307 217.236C294.42 217.115 294.553 217.023 294.705 216.961C294.857 216.894 295.025 216.861 295.209 216.861ZM303.5 213.469V219.381C303.5 219.58 303.469 219.768 303.406 219.943C303.348 220.115 303.264 220.264 303.154 220.389C303.045 220.514 302.912 220.613 302.756 220.687C302.6 220.758 302.428 220.793 302.24 220.793C302.006 220.793 301.807 220.762 301.643 220.699C301.479 220.637 301.346 220.541 301.244 220.412C301.166 220.307 301.107 220.178 301.068 220.025C301.029 219.873 301.01 219.695 301.01 219.492H299.357C299.361 219.934 299.434 220.318 299.574 220.646C299.715 220.975 299.912 221.246 300.166 221.461C300.416 221.68 300.717 221.844 301.068 221.953C301.42 222.062 301.811 222.117 302.24 222.117C302.646 222.117 303.025 222.051 303.377 221.918C303.732 221.785 304.041 221.598 304.303 221.355C304.564 221.113 304.77 220.826 304.918 220.494C305.07 220.158 305.148 219.787 305.152 219.381L305.146 213.469H303.5ZM311.111 219.773C311.111 219.926 311.08 220.066 311.018 220.195C310.955 220.32 310.865 220.428 310.748 220.518C310.631 220.607 310.486 220.678 310.314 220.728C310.146 220.779 309.953 220.805 309.734 220.805C309.488 220.805 309.262 220.777 309.055 220.723C308.852 220.668 308.678 220.582 308.533 220.465C308.385 220.348 308.27 220.197 308.188 220.014C308.105 219.83 308.061 219.609 308.053 219.352H306.436C306.436 219.793 306.52 220.178 306.688 220.506C306.859 220.834 307.092 221.119 307.385 221.361C307.693 221.607 308.055 221.795 308.469 221.924C308.887 222.049 309.309 222.111 309.734 222.111C310.168 222.111 310.568 222.06 310.936 221.959C311.303 221.853 311.619 221.699 311.885 221.496C312.15 221.297 312.357 221.053 312.506 220.764C312.658 220.471 312.734 220.137 312.734 219.762C312.734 219.328 312.635 218.945 312.436 218.613C312.236 218.281 311.969 217.99 311.633 217.74C311.41 217.588 311.166 217.453 310.9 217.336C310.635 217.219 310.355 217.119 310.062 217.037C309.789 216.963 309.543 216.883 309.324 216.797C309.109 216.711 308.926 216.615 308.773 216.51C308.621 216.408 308.504 216.293 308.422 216.164C308.344 216.035 308.305 215.891 308.305 215.73C308.305 215.578 308.334 215.437 308.393 215.309C308.455 215.176 308.545 215.06 308.662 214.963C308.779 214.869 308.922 214.797 309.09 214.746C309.262 214.691 309.457 214.664 309.676 214.664C309.914 214.664 310.121 214.697 310.297 214.764C310.477 214.826 310.627 214.914 310.748 215.027C310.865 215.144 310.953 215.283 311.012 215.443C311.074 215.603 311.109 215.779 311.117 215.971H312.723C312.723 215.588 312.648 215.236 312.5 214.916C312.352 214.596 312.145 214.318 311.879 214.084C311.613 213.853 311.295 213.674 310.924 213.545C310.557 213.416 310.15 213.352 309.705 213.352C309.275 213.352 308.877 213.408 308.51 213.521C308.143 213.631 307.824 213.789 307.555 213.996C307.285 214.203 307.074 214.453 306.922 214.746C306.77 215.039 306.693 215.365 306.693 215.725C306.693 216.037 306.75 216.326 306.863 216.592C306.98 216.857 307.152 217.1 307.379 217.318C307.605 217.537 307.896 217.738 308.252 217.922C308.611 218.105 309.027 218.262 309.5 218.391C309.805 218.473 310.059 218.562 310.262 218.66C310.469 218.754 310.637 218.857 310.766 218.971C310.891 219.088 310.979 219.213 311.029 219.346C311.084 219.478 311.111 219.621 311.111 219.773Z" fill="white"/>
<path d="M341 82L384.301 107V157L341 182L297.699 157V107L341 82Z" fill="#48A4C8"/>
<path d="M337.381 134.328H335.734C335.719 134.586 335.676 134.807 335.605 134.99C335.535 135.174 335.439 135.324 335.318 135.441C335.197 135.559 335.051 135.644 334.879 135.699C334.707 135.754 334.514 135.781 334.299 135.781C334.139 135.781 333.992 135.764 333.859 135.728C333.73 135.689 333.613 135.631 333.508 135.553C333.41 135.482 333.322 135.394 333.244 135.289C333.17 135.184 333.105 135.062 333.051 134.926C332.973 134.727 332.914 134.494 332.875 134.228C332.84 133.959 332.822 133.654 332.822 133.314V132.154C332.822 131.904 332.834 131.672 332.857 131.457C332.881 131.238 332.918 131.039 332.969 130.859C333.035 130.629 333.123 130.428 333.232 130.256C333.346 130.08 333.482 129.945 333.643 129.852C333.736 129.797 333.838 129.756 333.947 129.728C334.061 129.701 334.182 129.687 334.311 129.687C334.553 129.687 334.76 129.721 334.932 129.787C335.107 129.85 335.254 129.943 335.371 130.068C335.484 130.197 335.57 130.357 335.629 130.549C335.691 130.74 335.73 130.963 335.746 131.217H337.387C337.348 130.771 337.254 130.371 337.105 130.016C336.957 129.66 336.754 129.359 336.496 129.113C336.238 128.867 335.926 128.678 335.559 128.545C335.195 128.412 334.779 128.346 334.311 128.346C333.994 128.346 333.697 128.387 333.42 128.469C333.146 128.547 332.895 128.66 332.664 128.809C332.406 128.984 332.176 129.199 331.973 129.453C331.77 129.707 331.605 129.996 331.48 130.32C331.371 130.586 331.289 130.875 331.234 131.187C331.18 131.496 331.152 131.822 331.152 132.166V133.314C331.152 133.682 331.182 134.029 331.24 134.357C331.303 134.685 331.391 134.986 331.504 135.26C331.621 135.533 331.764 135.783 331.932 136.01C332.104 136.236 332.299 136.43 332.518 136.59C332.756 136.762 333.023 136.894 333.32 136.988C333.621 137.078 333.947 137.123 334.299 137.123C334.744 137.123 335.15 137.059 335.518 136.93C335.885 136.797 336.201 136.609 336.467 136.367C336.732 136.125 336.943 135.832 337.1 135.488C337.26 135.144 337.354 134.758 337.381 134.328ZM343.094 134.773C343.094 134.926 343.062 135.066 343 135.195C342.938 135.32 342.848 135.428 342.73 135.518C342.613 135.607 342.469 135.678 342.297 135.728C342.129 135.779 341.936 135.805 341.717 135.805C341.471 135.805 341.244 135.777 341.037 135.723C340.834 135.668 340.66 135.582 340.516 135.465C340.367 135.348 340.252 135.197 340.17 135.014C340.088 134.83 340.043 134.609 340.035 134.352H338.418C338.418 134.793 338.502 135.178 338.67 135.506C338.842 135.834 339.074 136.119 339.367 136.361C339.676 136.607 340.037 136.795 340.451 136.924C340.869 137.049 341.291 137.111 341.717 137.111C342.15 137.111 342.551 137.06 342.918 136.959C343.285 136.853 343.602 136.699 343.867 136.496C344.133 136.297 344.34 136.053 344.488 135.764C344.641 135.471 344.717 135.137 344.717 134.762C344.717 134.328 344.617 133.945 344.418 133.613C344.219 133.281 343.951 132.99 343.615 132.74C343.393 132.588 343.148 132.453 342.883 132.336C342.617 132.219 342.338 132.119 342.045 132.037C341.771 131.963 341.525 131.883 341.307 131.797C341.092 131.711 340.908 131.615 340.756 131.51C340.604 131.408 340.486 131.293 340.404 131.164C340.326 131.035 340.287 130.891 340.287 130.73C340.287 130.578 340.316 130.437 340.375 130.309C340.438 130.176 340.527 130.06 340.645 129.963C340.762 129.869 340.904 129.797 341.072 129.746C341.244 129.691 341.439 129.664 341.658 129.664C341.896 129.664 342.104 129.697 342.279 129.764C342.459 129.826 342.609 129.914 342.73 130.027C342.848 130.144 342.936 130.283 342.994 130.443C343.057 130.603 343.092 130.779 343.1 130.971H344.705C344.705 130.588 344.631 130.236 344.482 129.916C344.334 129.596 344.127 129.318 343.861 129.084C343.596 128.853 343.277 128.674 342.906 128.545C342.539 128.416 342.133 128.352 341.688 128.352C341.258 128.352 340.859 128.408 340.492 128.521C340.125 128.631 339.807 128.789 339.537 128.996C339.268 129.203 339.057 129.453 338.904 129.746C338.752 130.039 338.676 130.365 338.676 130.725C338.676 131.037 338.732 131.326 338.846 131.592C338.963 131.857 339.135 132.1 339.361 132.318C339.588 132.537 339.879 132.738 340.234 132.922C340.594 133.105 341.01 133.262 341.482 133.391C341.787 133.473 342.041 133.562 342.244 133.66C342.451 133.754 342.619 133.857 342.748 133.971C342.873 134.088 342.961 134.213 343.012 134.346C343.066 134.478 343.094 134.621 343.094 134.773ZM350.301 134.773C350.301 134.926 350.27 135.066 350.207 135.195C350.145 135.32 350.055 135.428 349.938 135.518C349.82 135.607 349.676 135.678 349.504 135.728C349.336 135.779 349.143 135.805 348.924 135.805C348.678 135.805 348.451 135.777 348.244 135.723C348.041 135.668 347.867 135.582 347.723 135.465C347.574 135.348 347.459 135.197 347.377 135.014C347.295 134.83 347.25 134.609 347.242 134.352H345.625C345.625 134.793 345.709 135.178 345.877 135.506C346.049 135.834 346.281 136.119 346.574 136.361C346.883 136.607 347.244 136.795 347.658 136.924C348.076 137.049 348.498 137.111 348.924 137.111C349.357 137.111 349.758 137.06 350.125 136.959C350.492 136.853 350.809 136.699 351.074 136.496C351.34 136.297 351.547 136.053 351.695 135.764C351.848 135.471 351.924 135.137 351.924 134.762C351.924 134.328 351.824 133.945 351.625 133.613C351.426 133.281 351.158 132.99 350.822 132.74C350.6 132.588 350.355 132.453 350.09 132.336C349.824 132.219 349.545 132.119 349.252 132.037C348.979 131.963 348.732 131.883 348.514 131.797C348.299 131.711 348.115 131.615 347.963 131.51C347.811 131.408 347.693 131.293 347.611 131.164C347.533 131.035 347.494 130.891 347.494 130.73C347.494 130.578 347.523 130.437 347.582 130.309C347.645 130.176 347.734 130.06 347.852 129.963C347.969 129.869 348.111 129.797 348.279 129.746C348.451 129.691 348.646 129.664 348.865 129.664C349.104 129.664 349.311 129.697 349.486 129.764C349.666 129.826 349.816 129.914 349.938 130.027C350.055 130.144 350.143 130.283 350.201 130.443C350.264 130.603 350.299 130.779 350.307 130.971H351.912C351.912 130.588 351.838 130.236 351.689 129.916C351.541 129.596 351.334 129.318 351.068 129.084C350.803 128.853 350.484 128.674 350.113 128.545C349.746 128.416 349.34 128.352 348.895 128.352C348.465 128.352 348.066 128.408 347.699 128.521C347.332 128.631 347.014 128.789 346.744 128.996C346.475 129.203 346.264 129.453 346.111 129.746C345.959 130.039 345.883 130.365 345.883 130.725C345.883 131.037 345.939 131.326 346.053 131.592C346.17 131.857 346.342 132.1 346.568 132.318C346.795 132.537 347.086 132.738 347.441 132.922C347.801 133.105 348.217 133.262 348.689 133.391C348.994 133.473 349.248 133.562 349.451 133.66C349.658 133.754 349.826 133.857 349.955 133.971C350.08 134.088 350.168 134.213 350.219 134.346C350.273 134.478 350.301 134.621 350.301 134.773Z" fill="white"/>
<path d="M441 82L484.301 107V157L441 182L397.699 157V107L441 82Z" fill="#2A3E4C"/>
<path d="M419.035 137H420.711L423.295 128.469H421.479L420.025 134.035L419.867 134.615L419.721 134.041L418.273 128.469H416.457L419.035 137ZM427.385 137.117C427.998 137.117 428.529 136.998 428.979 136.76C429.428 136.521 429.756 136.256 429.963 135.963L429.148 135.084C428.961 135.326 428.717 135.508 428.416 135.629C428.115 135.75 427.805 135.81 427.484 135.81C427.258 135.81 427.049 135.775 426.857 135.705C426.666 135.635 426.496 135.535 426.348 135.406C426.203 135.281 426.088 135.143 426.002 134.99C425.916 134.834 425.846 134.629 425.791 134.375V134.357H430.092V133.666C430.092 133.201 430.027 132.777 429.898 132.394C429.77 132.008 429.582 131.678 429.336 131.404C429.086 131.131 428.781 130.92 428.422 130.771C428.066 130.619 427.66 130.543 427.203 130.543C426.762 130.543 426.354 130.623 425.979 130.783C425.604 130.943 425.279 131.168 425.006 131.457C424.732 131.746 424.52 132.092 424.367 132.494C424.215 132.893 424.139 133.334 424.139 133.818V134.053C424.139 134.478 424.215 134.879 424.367 135.254C424.523 135.625 424.744 135.947 425.029 136.221C425.314 136.498 425.656 136.717 426.055 136.877C426.453 137.037 426.896 137.117 427.385 137.117ZM427.191 131.861C427.398 131.861 427.58 131.894 427.736 131.961C427.896 132.023 428.031 132.109 428.141 132.219C428.25 132.332 428.336 132.465 428.398 132.617C428.461 132.769 428.492 132.932 428.492 133.103V133.232H425.82C425.859 133.025 425.918 132.838 425.996 132.67C426.074 132.502 426.172 132.357 426.289 132.236C426.402 132.115 426.535 132.023 426.688 131.961C426.84 131.894 427.008 131.861 427.191 131.861ZM436.068 130.543C435.643 130.543 435.25 130.646 434.891 130.853C434.531 131.057 434.223 131.338 433.965 131.697L433.953 131.557L433.889 130.66H432.371V137H434V133.191C434.074 133.012 434.168 132.855 434.281 132.723C434.395 132.59 434.531 132.48 434.691 132.394C434.824 132.32 434.975 132.266 435.143 132.23C435.314 132.191 435.506 132.172 435.717 132.172C435.92 132.172 436.133 132.185 436.355 132.213C436.582 132.236 436.803 132.273 437.018 132.324L437.258 130.701C437.129 130.662 436.959 130.627 436.748 130.596C436.541 130.56 436.314 130.543 436.068 130.543ZM439.156 130.66V131.99H440.961V135.676H439.156V137H444.324V135.676H442.607V130.66H439.156ZM440.844 129.037C440.844 129.162 440.865 129.279 440.908 129.389C440.955 129.494 441.02 129.584 441.102 129.658C441.184 129.736 441.281 129.797 441.395 129.84C441.512 129.883 441.641 129.904 441.781 129.904C442.07 129.904 442.299 129.824 442.467 129.664C442.639 129.5 442.725 129.291 442.725 129.037C442.725 128.783 442.639 128.576 442.467 128.416C442.299 128.252 442.07 128.17 441.781 128.17C441.641 128.17 441.512 128.191 441.395 128.234C441.281 128.277 441.184 128.336 441.102 128.41C441.02 128.488 440.955 128.582 440.908 128.691C440.865 128.797 440.844 128.912 440.844 129.037ZM446.27 128V129.33H448.168V135.676H446.27V137H451.631V135.676H449.814V128H446.27ZM452.914 133.771V133.894C452.914 134.359 452.98 134.789 453.113 135.184C453.246 135.574 453.441 135.914 453.699 136.203C453.953 136.492 454.266 136.719 454.637 136.883C455.012 137.043 455.438 137.123 455.914 137.123C456.387 137.123 456.809 137.043 457.18 136.883C457.551 136.719 457.863 136.492 458.117 136.203C458.371 135.914 458.564 135.574 458.697 135.184C458.83 134.789 458.896 134.359 458.896 133.894V133.771C458.896 133.31 458.83 132.885 458.697 132.494C458.564 132.1 458.371 131.758 458.117 131.469C457.859 131.18 457.545 130.953 457.174 130.789C456.803 130.625 456.379 130.543 455.902 130.543C455.426 130.543 455.002 130.625 454.631 130.789C454.264 130.953 453.953 131.18 453.699 131.469C453.441 131.758 453.246 132.1 453.113 132.494C452.98 132.885 452.914 133.31 452.914 133.771ZM454.543 133.894V133.771C454.543 133.514 454.568 133.269 454.619 133.039C454.67 132.809 454.75 132.605 454.859 132.43C454.969 132.254 455.109 132.115 455.281 132.014C455.453 131.912 455.66 131.861 455.902 131.861C456.148 131.861 456.357 131.912 456.529 132.014C456.701 132.115 456.842 132.254 456.951 132.43C457.057 132.605 457.135 132.809 457.186 133.039C457.236 133.269 457.262 133.514 457.262 133.771V133.894C457.262 134.16 457.236 134.41 457.186 134.644C457.135 134.875 457.057 135.076 456.951 135.248C456.842 135.424 456.701 135.562 456.529 135.664C456.357 135.766 456.152 135.816 455.914 135.816C455.668 135.816 455.457 135.766 455.281 135.664C455.109 135.562 454.969 135.424 454.859 135.248C454.75 135.076 454.67 134.875 454.619 134.644C454.568 134.41 454.543 134.16 454.543 133.894ZM460.18 133.783V133.906C460.18 134.367 460.238 134.795 460.355 135.189C460.477 135.58 460.648 135.918 460.871 136.203C461.094 136.488 461.361 136.713 461.674 136.877C461.99 137.037 462.346 137.117 462.74 137.117C462.939 137.117 463.125 137.096 463.297 137.053C463.473 137.01 463.633 136.949 463.777 136.871C463.875 136.816 463.967 136.754 464.053 136.684C464.139 136.613 464.221 136.535 464.299 136.449V136.812C464.299 137.027 464.268 137.221 464.205 137.393C464.146 137.564 464.061 137.709 463.947 137.826C463.822 137.955 463.666 138.053 463.479 138.119C463.295 138.185 463.084 138.219 462.846 138.219C462.697 138.219 462.553 138.203 462.412 138.172C462.275 138.144 462.143 138.102 462.014 138.043C461.881 137.984 461.754 137.908 461.633 137.814C461.512 137.725 461.398 137.619 461.293 137.498L460.561 138.488C460.697 138.664 460.861 138.814 461.053 138.939C461.244 139.068 461.447 139.174 461.662 139.256C461.877 139.338 462.094 139.398 462.312 139.437C462.531 139.477 462.736 139.496 462.928 139.496C463.373 139.496 463.779 139.435 464.146 139.314C464.518 139.197 464.836 139.023 465.102 138.793C465.363 138.562 465.566 138.279 465.711 137.943C465.859 137.607 465.934 137.225 465.934 136.795V130.66H464.451L464.387 131.264C464.309 131.166 464.223 131.078 464.129 131C464.035 130.918 463.934 130.848 463.824 130.789C463.68 130.707 463.518 130.646 463.338 130.607C463.162 130.564 462.967 130.543 462.752 130.543C462.354 130.543 461.996 130.621 461.68 130.777C461.363 130.934 461.094 131.154 460.871 131.439C460.648 131.725 460.477 132.066 460.355 132.465C460.238 132.863 460.18 133.303 460.18 133.783ZM461.814 133.906V133.783C461.814 133.518 461.842 133.269 461.896 133.039C461.951 132.805 462.035 132.6 462.148 132.424C462.258 132.252 462.396 132.117 462.564 132.019C462.732 131.918 462.932 131.867 463.162 131.867C463.287 131.867 463.402 131.879 463.508 131.902C463.617 131.926 463.717 131.959 463.807 132.002C463.912 132.053 464.006 132.119 464.088 132.201C464.17 132.283 464.24 132.379 464.299 132.488V135.172C464.244 135.269 464.18 135.357 464.105 135.435C464.031 135.514 463.945 135.58 463.848 135.635C463.754 135.685 463.648 135.725 463.531 135.752C463.418 135.779 463.291 135.793 463.15 135.793C462.92 135.793 462.721 135.744 462.553 135.646C462.385 135.549 462.246 135.414 462.137 135.242C462.027 135.074 461.945 134.877 461.891 134.65C461.84 134.42 461.814 134.172 461.814 133.906Z" fill="white"/>
<path d="M391 167L434.301 192V242L391 267L347.699 242V192L391 167Z" fill="#2A3E4C"/>
<path d="M368.807 220.67V213.469H367.154V222H372.803V220.67H368.807ZM380.52 214.81V213.469H373.641V214.81H376.236V222H377.889V214.81H380.52ZM385.887 219.773C385.887 219.926 385.855 220.066 385.793 220.195C385.73 220.32 385.641 220.428 385.523 220.518C385.406 220.607 385.262 220.678 385.09 220.728C384.922 220.779 384.729 220.805 384.51 220.805C384.264 220.805 384.037 220.777 383.83 220.723C383.627 220.668 383.453 220.582 383.309 220.465C383.16 220.348 383.045 220.197 382.963 220.014C382.881 219.83 382.836 219.609 382.828 219.352H381.211C381.211 219.793 381.295 220.178 381.463 220.506C381.635 220.834 381.867 221.119 382.16 221.361C382.469 221.607 382.83 221.795 383.244 221.924C383.662 222.049 384.084 222.111 384.51 222.111C384.943 222.111 385.344 222.06 385.711 221.959C386.078 221.853 386.395 221.699 386.66 221.496C386.926 221.297 387.133 221.053 387.281 220.764C387.434 220.471 387.51 220.137 387.51 219.762C387.51 219.328 387.41 218.945 387.211 218.613C387.012 218.281 386.744 217.99 386.408 217.74C386.186 217.588 385.941 217.453 385.676 217.336C385.41 217.219 385.131 217.119 384.838 217.037C384.564 216.963 384.318 216.883 384.1 216.797C383.885 216.711 383.701 216.615 383.549 216.51C383.396 216.408 383.279 216.293 383.197 216.164C383.119 216.035 383.08 215.891 383.08 215.73C383.08 215.578 383.109 215.437 383.168 215.309C383.23 215.176 383.32 215.06 383.438 214.963C383.555 214.869 383.697 214.797 383.865 214.746C384.037 214.691 384.232 214.664 384.451 214.664C384.689 214.664 384.896 214.697 385.072 214.764C385.252 214.826 385.402 214.914 385.523 215.027C385.641 215.144 385.729 215.283 385.787 215.443C385.85 215.603 385.885 215.779 385.893 215.971H387.498C387.498 215.588 387.424 215.236 387.275 214.916C387.127 214.596 386.92 214.318 386.654 214.084C386.389 213.853 386.07 213.674 385.699 213.545C385.332 213.416 384.926 213.352 384.48 213.352C384.051 213.352 383.652 213.408 383.285 213.521C382.918 213.631 382.6 213.789 382.33 213.996C382.061 214.203 381.85 214.453 381.697 214.746C381.545 215.039 381.469 215.365 381.469 215.725C381.469 216.037 381.525 216.326 381.639 216.592C381.756 216.857 381.928 217.1 382.154 217.318C382.381 217.537 382.672 217.738 383.027 217.922C383.387 218.105 383.803 218.262 384.275 218.391C384.58 218.473 384.834 218.562 385.037 218.66C385.244 218.754 385.412 218.857 385.541 218.971C385.666 219.088 385.754 219.213 385.805 219.346C385.859 219.478 385.887 219.621 385.887 219.773ZM388.746 224.437H390.375V221.449C390.449 221.531 390.527 221.605 390.609 221.672C390.691 221.738 390.777 221.799 390.867 221.853C391.02 221.939 391.184 222.004 391.359 222.047C391.539 222.094 391.734 222.117 391.945 222.117C392.344 222.117 392.697 222.035 393.006 221.871C393.314 221.707 393.574 221.48 393.785 221.191C393.992 220.906 394.148 220.566 394.254 220.172C394.363 219.777 394.418 219.35 394.418 218.889V218.766C394.418 218.285 394.363 217.848 394.254 217.453C394.148 217.055 393.99 216.713 393.779 216.428C393.568 216.146 393.309 215.93 393 215.777C392.691 215.621 392.336 215.543 391.934 215.543C391.738 215.543 391.555 215.564 391.383 215.607C391.215 215.646 391.061 215.703 390.92 215.777C390.803 215.84 390.693 215.914 390.592 216C390.49 216.082 390.396 216.176 390.311 216.281L390.252 215.66H388.746V224.437ZM392.789 218.766V218.889C392.789 219.15 392.766 219.398 392.719 219.633C392.672 219.863 392.598 220.066 392.496 220.242C392.395 220.418 392.262 220.557 392.098 220.658C391.938 220.76 391.742 220.81 391.512 220.81C391.367 220.81 391.236 220.797 391.119 220.769C391.002 220.738 390.898 220.695 390.809 220.641C390.715 220.582 390.631 220.512 390.557 220.43C390.486 220.348 390.426 220.256 390.375 220.154V217.506C390.43 217.396 390.494 217.301 390.568 217.219C390.646 217.137 390.736 217.068 390.838 217.014C390.928 216.967 391.027 216.932 391.137 216.908C391.246 216.881 391.367 216.867 391.5 216.867C391.73 216.867 391.926 216.916 392.086 217.014C392.25 217.111 392.385 217.244 392.49 217.412C392.592 217.584 392.666 217.787 392.713 218.021C392.764 218.252 392.789 218.5 392.789 218.766ZM396.363 215.66V216.99H398.168V220.676H396.363V222H401.531V220.676H399.814V215.66H396.363ZM398.051 214.037C398.051 214.162 398.072 214.279 398.115 214.389C398.162 214.494 398.227 214.584 398.309 214.658C398.391 214.736 398.488 214.797 398.602 214.84C398.719 214.883 398.848 214.904 398.988 214.904C399.277 214.904 399.506 214.824 399.674 214.664C399.846 214.5 399.932 214.291 399.932 214.037C399.932 213.783 399.846 213.576 399.674 213.416C399.506 213.252 399.277 213.17 398.988 213.17C398.848 213.17 398.719 213.191 398.602 213.234C398.488 213.277 398.391 213.336 398.309 213.41C398.227 213.488 398.162 213.582 398.115 213.691C398.072 213.797 398.051 213.912 398.051 214.037ZM405.943 220.816C405.682 220.816 405.465 220.764 405.293 220.658C405.125 220.553 404.992 220.412 404.895 220.236C404.793 220.064 404.723 219.865 404.684 219.639C404.645 219.408 404.625 219.17 404.625 218.924V218.748C404.625 218.506 404.645 218.271 404.684 218.045C404.727 217.818 404.799 217.617 404.9 217.441C404.998 217.266 405.131 217.125 405.299 217.019C405.467 216.914 405.68 216.861 405.938 216.861C406.113 216.861 406.275 216.893 406.424 216.955C406.572 217.014 406.699 217.094 406.805 217.195C406.91 217.297 406.99 217.418 407.045 217.559C407.1 217.699 407.123 217.848 407.115 218.004H408.65C408.658 217.629 408.596 217.291 408.463 216.99C408.33 216.685 408.145 216.426 407.906 216.211C407.664 216 407.377 215.836 407.045 215.719C406.713 215.602 406.352 215.543 405.961 215.543C405.473 215.543 405.043 215.627 404.672 215.795C404.305 215.963 403.996 216.191 403.746 216.48C403.496 216.769 403.309 217.109 403.184 217.5C403.059 217.887 402.996 218.303 402.996 218.748V218.924C402.996 219.369 403.059 219.787 403.184 220.178C403.312 220.564 403.502 220.902 403.752 221.191C403.998 221.48 404.307 221.709 404.678 221.877C405.049 222.041 405.48 222.123 405.973 222.123C406.336 222.123 406.68 222.066 407.004 221.953C407.332 221.836 407.619 221.676 407.865 221.473C408.111 221.269 408.305 221.027 408.445 220.746C408.59 220.465 408.658 220.16 408.65 219.832H407.115C407.123 219.98 407.096 220.115 407.033 220.236C406.975 220.357 406.891 220.461 406.781 220.547C406.672 220.633 406.545 220.699 406.4 220.746C406.256 220.793 406.104 220.816 405.943 220.816ZM413.42 222.117C414.033 222.117 414.564 221.998 415.014 221.76C415.463 221.521 415.791 221.256 415.998 220.963L415.184 220.084C414.996 220.326 414.752 220.508 414.451 220.629C414.15 220.75 413.84 220.81 413.52 220.81C413.293 220.81 413.084 220.775 412.893 220.705C412.701 220.635 412.531 220.535 412.383 220.406C412.238 220.281 412.123 220.143 412.037 219.99C411.951 219.834 411.881 219.629 411.826 219.375V219.357H416.127V218.666C416.127 218.201 416.062 217.777 415.934 217.394C415.805 217.008 415.617 216.678 415.371 216.404C415.121 216.131 414.816 215.92 414.457 215.771C414.102 215.619 413.695 215.543 413.238 215.543C412.797 215.543 412.389 215.623 412.014 215.783C411.639 215.943 411.314 216.168 411.041 216.457C410.768 216.746 410.555 217.092 410.402 217.494C410.25 217.893 410.174 218.334 410.174 218.818V219.053C410.174 219.478 410.25 219.879 410.402 220.254C410.559 220.625 410.779 220.947 411.064 221.221C411.35 221.498 411.691 221.717 412.09 221.877C412.488 222.037 412.932 222.117 413.42 222.117ZM413.227 216.861C413.434 216.861 413.615 216.894 413.771 216.961C413.932 217.023 414.066 217.109 414.176 217.219C414.285 217.332 414.371 217.465 414.434 217.617C414.496 217.769 414.527 217.932 414.527 218.103V218.232H411.855C411.895 218.025 411.953 217.838 412.031 217.67C412.109 217.502 412.207 217.357 412.324 217.236C412.438 217.115 412.57 217.023 412.723 216.961C412.875 216.894 413.043 216.861 413.227 216.861Z" fill="white"/>
<path d="M491 0L534.301 25V75L491 100L447.699 75V25L491 0Z" fill="#48A4C8"/>
<path d="M472.398 51.8712H473.67C474.134 51.8712 474.554 51.8047 474.929 51.6719C475.304 51.5391 475.625 51.3536 475.89 51.1153C476.152 50.8809 476.353 50.6016 476.494 50.2774C476.638 49.9532 476.711 49.5997 476.711 49.2169C476.711 48.8067 476.638 48.4337 476.494 48.0977C476.353 47.7618 476.152 47.4727 475.89 47.2305C475.625 46.9922 475.304 46.8067 474.929 46.6739C474.554 46.5372 474.134 46.4688 473.67 46.4688H470.752V55.0001H472.398V51.8712ZM472.398 50.5352V47.8047H473.67C473.904 47.8047 474.107 47.8419 474.279 47.9161C474.451 47.9903 474.595 48.0919 474.713 48.2208C474.826 48.3497 474.91 48.5001 474.964 48.6719C475.023 48.8438 475.052 49.0294 475.052 49.2286C475.052 49.4005 475.023 49.5665 474.964 49.7266C474.91 49.8829 474.826 50.0215 474.713 50.1426C474.595 50.2637 474.451 50.3594 474.279 50.4297C474.107 50.5001 473.904 50.5352 473.67 50.5352H472.398ZM478.914 57.5606C479.242 57.5606 479.525 57.5059 479.763 57.3965C480.005 57.2872 480.211 57.1524 480.379 56.9922C480.547 56.8321 480.685 56.6583 480.795 56.4708C480.908 56.2833 481 56.1094 481.07 55.9493L484.287 48.6602H482.488L481.041 52.3868L480.8 53.0196L480.625 52.3751L479.172 48.6602H477.39L480.074 54.7305L479.699 55.4278C479.652 55.5137 479.611 55.5801 479.576 55.627C479.545 55.6739 479.494 55.7442 479.423 55.838C479.353 55.9317 479.267 56.0176 479.166 56.0958C479.068 56.1778 478.955 56.2188 478.826 56.2188C478.763 56.2188 478.679 56.2149 478.574 56.2071C478.472 56.2032 478.388 56.2012 478.322 56.2012L478.123 57.4434C478.263 57.4825 478.39 57.5118 478.504 57.5313C478.621 57.5508 478.757 57.5606 478.914 57.5606ZM488.107 47.1075H486.478V48.6602H485.031V49.8614H486.478V52.7442C486.478 53.1622 486.533 53.5215 486.642 53.8223C486.752 54.1192 486.908 54.3633 487.111 54.5547C487.31 54.7501 487.55 54.8946 487.832 54.9883C488.117 55.0782 488.433 55.1231 488.781 55.1231C488.961 55.1231 489.142 55.1133 489.326 55.0938C489.513 55.0782 489.693 55.0547 489.865 55.0235C490.037 54.9922 490.199 54.9532 490.351 54.9063C490.504 54.8555 490.636 54.7969 490.75 54.7305L490.591 53.6114C490.517 53.6309 490.427 53.6505 490.322 53.67C490.22 53.6895 490.111 53.7071 489.994 53.7227C489.873 53.7422 489.746 53.7579 489.613 53.7696C489.484 53.7813 489.357 53.7872 489.232 53.7872C489.06 53.7872 488.904 53.7676 488.763 53.7286C488.627 53.6895 488.509 53.6231 488.412 53.5294C488.314 53.4395 488.238 53.3184 488.183 53.1661C488.132 53.0098 488.107 52.8165 488.107 52.586V49.8614H490.474V48.6602H488.107V47.1075ZM493.955 49.5333V46.0001H492.326V55.0001H493.955V50.4239C494.017 50.3419 494.086 50.2676 494.16 50.2012C494.238 50.1348 494.324 50.0782 494.418 50.0313C494.519 49.9766 494.632 49.9356 494.757 49.9083C494.882 49.8809 495.017 49.8672 495.162 49.8672C495.349 49.8672 495.517 49.8926 495.666 49.9434C495.814 49.9903 495.941 50.0645 496.047 50.1661C496.152 50.2676 496.232 50.4005 496.287 50.5645C496.345 50.7286 496.375 50.9239 496.375 51.1505V55.0001H498.004V51.1622C498.004 50.6973 497.947 50.3008 497.834 49.9727C497.724 49.6407 497.57 49.3692 497.371 49.1583C497.172 48.9473 496.933 48.793 496.656 48.6954C496.379 48.5938 496.074 48.543 495.742 48.543C495.515 48.543 495.3 48.5762 495.097 48.6426C494.894 48.709 494.709 48.8028 494.541 48.9239C494.431 49.002 494.326 49.0938 494.224 49.1993C494.127 49.3008 494.037 49.4122 493.955 49.5333ZM499.31 51.7715V51.8946C499.31 52.3594 499.377 52.7891 499.509 53.1837C499.642 53.5743 499.838 53.9141 500.095 54.2032C500.349 54.4922 500.662 54.7188 501.033 54.8829C501.408 55.043 501.834 55.1231 502.31 55.1231C502.783 55.1231 503.205 55.043 503.576 54.8829C503.947 54.7188 504.259 54.4922 504.513 54.2032C504.767 53.9141 504.961 53.5743 505.093 53.1837C505.226 52.7891 505.293 52.3594 505.293 51.8946V51.7715C505.293 51.3106 505.226 50.8848 505.093 50.4942C504.961 50.0997 504.767 49.7579 504.513 49.4688C504.255 49.1797 503.941 48.9532 503.57 48.7891C503.199 48.6251 502.775 48.543 502.298 48.543C501.822 48.543 501.398 48.6251 501.027 48.7891C500.66 48.9532 500.349 49.1797 500.095 49.4688C499.838 49.7579 499.642 50.0997 499.509 50.4942C499.377 50.8848 499.31 51.3106 499.31 51.7715ZM500.939 51.8946V51.7715C500.939 51.5137 500.964 51.2696 501.015 51.0391C501.066 50.8087 501.146 50.6055 501.255 50.4297C501.365 50.254 501.505 50.1153 501.677 50.0137C501.849 49.9122 502.056 49.8614 502.298 49.8614C502.545 49.8614 502.754 49.9122 502.925 50.0137C503.097 50.1153 503.238 50.254 503.347 50.4297C503.453 50.6055 503.531 50.8087 503.582 51.0391C503.632 51.2696 503.658 51.5137 503.658 51.7715V51.8946C503.658 52.1602 503.632 52.4102 503.582 52.6446C503.531 52.8751 503.453 53.0762 503.347 53.2481C503.238 53.4239 503.097 53.5626 502.925 53.6641C502.754 53.7657 502.548 53.8165 502.31 53.8165C502.064 53.8165 501.853 53.7657 501.677 53.6641C501.505 53.5626 501.365 53.4239 501.255 53.2481C501.146 53.0762 501.066 52.8751 501.015 52.6446C500.964 52.4102 500.939 52.1602 500.939 51.8946ZM506.74 55.0001H508.375V50.4942C508.429 50.4083 508.49 50.3301 508.556 50.2598C508.623 50.1895 508.697 50.129 508.779 50.0782C508.88 50.0079 508.996 49.9551 509.125 49.92C509.257 49.8848 509.402 49.8672 509.558 49.8672C509.746 49.8672 509.914 49.8868 510.062 49.9258C510.211 49.961 510.338 50.0255 510.443 50.1192C510.548 50.213 510.629 50.3419 510.683 50.5059C510.742 50.6661 510.771 50.8712 510.771 51.1212V55.0001H512.4V51.0977C512.4 50.6368 512.345 50.2462 512.236 49.9258C512.13 49.6016 511.982 49.336 511.791 49.129C511.595 48.9258 511.365 48.7774 511.099 48.6837C510.834 48.5899 510.541 48.543 510.22 48.543C509.97 48.543 509.734 48.5782 509.511 48.6485C509.289 48.7188 509.084 48.8204 508.896 48.9532C508.787 49.0313 508.683 49.1192 508.586 49.2169C508.488 49.3145 508.398 49.4219 508.316 49.5391L508.216 48.6602H506.74V55.0001Z" fill="white"/>
<path d="M541 82L584.301 107V157L541 182L497.699 157V107L541 82Z" fill="#48A4C8"/>
<path d="M522.967 134.328H521.32C521.305 134.586 521.262 134.807 521.191 134.99C521.121 135.174 521.025 135.324 520.904 135.441C520.783 135.559 520.637 135.644 520.465 135.699C520.293 135.754 520.1 135.781 519.885 135.781C519.725 135.781 519.578 135.764 519.445 135.728C519.316 135.689 519.199 135.631 519.094 135.553C518.996 135.482 518.908 135.394 518.83 135.289C518.756 135.184 518.691 135.062 518.637 134.926C518.559 134.727 518.5 134.494 518.461 134.228C518.426 133.959 518.408 133.654 518.408 133.314V132.154C518.408 131.904 518.42 131.672 518.443 131.457C518.467 131.238 518.504 131.039 518.555 130.859C518.621 130.629 518.709 130.428 518.818 130.256C518.932 130.08 519.068 129.945 519.229 129.852C519.322 129.797 519.424 129.756 519.533 129.728C519.646 129.701 519.768 129.687 519.896 129.687C520.139 129.687 520.346 129.721 520.518 129.787C520.693 129.85 520.84 129.943 520.957 130.068C521.07 130.197 521.156 130.357 521.215 130.549C521.277 130.74 521.316 130.963 521.332 131.217H522.973C522.934 130.771 522.84 130.371 522.691 130.016C522.543 129.66 522.34 129.359 522.082 129.113C521.824 128.867 521.512 128.678 521.145 128.545C520.781 128.412 520.365 128.346 519.896 128.346C519.58 128.346 519.283 128.387 519.006 128.469C518.732 128.547 518.48 128.66 518.25 128.809C517.992 128.984 517.762 129.199 517.559 129.453C517.355 129.707 517.191 129.996 517.066 130.32C516.957 130.586 516.875 130.875 516.82 131.187C516.766 131.496 516.738 131.822 516.738 132.166V133.314C516.738 133.682 516.768 134.029 516.826 134.357C516.889 134.685 516.977 134.986 517.09 135.26C517.207 135.533 517.35 135.783 517.518 136.01C517.689 136.236 517.885 136.43 518.104 136.59C518.342 136.762 518.609 136.894 518.906 136.988C519.207 137.078 519.533 137.123 519.885 137.123C520.33 137.123 520.736 137.059 521.104 136.93C521.471 136.797 521.787 136.609 522.053 136.367C522.318 136.125 522.529 135.832 522.686 135.488C522.846 135.144 522.939 134.758 522.967 134.328ZM533.496 137.732L536.689 128.469H535.172L531.979 137.732H533.496ZM551.795 134.328H550.148C550.133 134.586 550.09 134.807 550.02 134.99C549.949 135.174 549.854 135.324 549.732 135.441C549.611 135.559 549.465 135.644 549.293 135.699C549.121 135.754 548.928 135.781 548.713 135.781C548.553 135.781 548.406 135.764 548.273 135.728C548.145 135.689 548.027 135.631 547.922 135.553C547.824 135.482 547.736 135.394 547.658 135.289C547.584 135.184 547.52 135.062 547.465 134.926C547.387 134.727 547.328 134.494 547.289 134.228C547.254 133.959 547.236 133.654 547.236 133.314V132.154C547.236 131.904 547.248 131.672 547.271 131.457C547.295 131.238 547.332 131.039 547.383 130.859C547.449 130.629 547.537 130.428 547.646 130.256C547.76 130.08 547.896 129.945 548.057 129.852C548.15 129.797 548.252 129.756 548.361 129.728C548.475 129.701 548.596 129.687 548.725 129.687C548.967 129.687 549.174 129.721 549.346 129.787C549.521 129.85 549.668 129.943 549.785 130.068C549.898 130.197 549.984 130.357 550.043 130.549C550.105 130.74 550.145 130.963 550.16 131.217H551.801C551.762 130.771 551.668 130.371 551.52 130.016C551.371 129.66 551.168 129.359 550.91 129.113C550.652 128.867 550.34 128.678 549.973 128.545C549.609 128.412 549.193 128.346 548.725 128.346C548.408 128.346 548.111 128.387 547.834 128.469C547.561 128.547 547.309 128.66 547.078 128.809C546.82 128.984 546.59 129.199 546.387 129.453C546.184 129.707 546.02 129.996 545.895 130.32C545.785 130.586 545.703 130.875 545.648 131.187C545.594 131.496 545.566 131.822 545.566 132.166V133.314C545.566 133.682 545.596 134.029 545.654 134.357C545.717 134.685 545.805 134.986 545.918 135.26C546.035 135.533 546.178 135.783 546.346 136.01C546.518 136.236 546.713 136.43 546.932 136.59C547.17 136.762 547.438 136.894 547.734 136.988C548.035 137.078 548.361 137.123 548.713 137.123C549.158 137.123 549.564 137.059 549.932 136.93C550.299 136.797 550.615 136.609 550.881 136.367C551.146 136.125 551.357 135.832 551.514 135.488C551.674 135.144 551.768 134.758 551.795 134.328ZM556.594 132.242V129.934H555.041V132.242H552.891V133.73H555.041V136.144H556.594V133.73H558.738V132.242H556.594ZM563.801 132.242V129.934H562.248V132.242H560.098V133.73H562.248V136.144H563.801V133.73H565.945V132.242H563.801Z" fill="white"/>
<path d="M291 0L334.301 25V75L291 100L247.699 75V25L291 0Z" fill="#48A4C8"/>
<path d="M283.484 54.9999V46.4687H281.855V49.9667H279.441V46.4687H277.807V54.9999H279.441V51.3027H281.855V54.9999H283.484ZM291.33 47.8105V46.4687H284.451V47.8105H287.047V54.9999H288.699V47.8105H291.33ZM294.289 46.4687H292.244V54.9999H293.756V52.4745L293.686 48.6425L294.688 52.1874H295.502L296.621 48.4843L296.551 52.4745V54.9999H298.062V46.4687H296.018L295.098 49.6738L294.289 46.4687ZM301.238 53.6699V46.4687H299.586V54.9999H305.234V53.6699H301.238Z" fill="white"/>
<path d="M50 82L93.3013 107V157L50 182L6.69873 157V107L50 82Z" fill="#2A3E4C"/>
<path d="M35.5703 134.328H33.9238C33.9082 134.586 33.8652 134.807 33.7949 134.99C33.7246 135.174 33.6289 135.324 33.5078 135.441C33.3867 135.559 33.2402 135.644 33.0684 135.699C32.8965 135.754 32.7031 135.781 32.4883 135.781C32.3281 135.781 32.1816 135.764 32.0488 135.728C31.9199 135.689 31.8027 135.631 31.6973 135.553C31.5996 135.482 31.5117 135.394 31.4336 135.289C31.3594 135.184 31.2949 135.062 31.2402 134.926C31.1621 134.727 31.1035 134.494 31.0645 134.228C31.0293 133.959 31.0117 133.654 31.0117 133.314V132.154C31.0117 131.904 31.0234 131.672 31.0469 131.457C31.0703 131.238 31.1074 131.039 31.1582 130.859C31.2246 130.629 31.3125 130.428 31.4219 130.256C31.5352 130.08 31.6719 129.945 31.832 129.852C31.9258 129.797 32.0273 129.756 32.1367 129.728C32.25 129.701 32.3711 129.687 32.5 129.687C32.7422 129.687 32.9492 129.721 33.1211 129.787C33.2969 129.85 33.4434 129.943 33.5605 130.068C33.6738 130.197 33.7598 130.357 33.8184 130.549C33.8809 130.74 33.9199 130.963 33.9355 131.217H35.5762C35.5371 130.771 35.4434 130.371 35.2949 130.016C35.1465 129.66 34.9434 129.359 34.6855 129.113C34.4277 128.867 34.1152 128.678 33.748 128.545C33.3848 128.412 32.9688 128.346 32.5 128.346C32.1836 128.346 31.8867 128.387 31.6094 128.469C31.3359 128.547 31.084 128.66 30.8535 128.809C30.5957 128.984 30.3652 129.199 30.1621 129.453C29.959 129.707 29.7949 129.996 29.6699 130.32C29.5605 130.586 29.4785 130.875 29.4238 131.187C29.3691 131.496 29.3418 131.822 29.3418 132.166V133.314C29.3418 133.682 29.3711 134.029 29.4297 134.357C29.4922 134.685 29.5801 134.986 29.6934 135.26C29.8105 135.533 29.9531 135.783 30.1211 136.01C30.293 136.236 30.4883 136.43 30.707 136.59C30.9453 136.762 31.2129 136.894 31.5098 136.988C31.8105 137.078 32.1367 137.123 32.4883 137.123C32.9336 137.123 33.3398 137.059 33.707 136.93C34.0742 136.797 34.3906 136.609 34.6562 136.367C34.9219 136.125 35.1328 135.832 35.2891 135.488C35.4492 135.144 35.543 134.758 35.5703 134.328ZM42.8066 133.361V132.119C42.8066 131.732 42.7695 131.367 42.6953 131.023C42.625 130.68 42.5215 130.363 42.3848 130.074C42.2598 129.82 42.1094 129.588 41.9336 129.377C41.7617 129.166 41.5605 128.986 41.3301 128.838C41.0996 128.682 40.8398 128.562 40.5508 128.48C40.2656 128.394 39.959 128.352 39.6309 128.352C39.3066 128.352 39.0059 128.393 38.7285 128.475C38.4512 128.557 38.2012 128.674 37.9785 128.826C37.752 128.982 37.5508 129.17 37.375 129.389C37.2031 129.607 37.0566 129.852 36.9355 130.121C36.8105 130.406 36.7148 130.717 36.6484 131.053C36.5859 131.389 36.5547 131.744 36.5547 132.119V133.361C36.5547 133.713 36.582 134.047 36.6367 134.363C36.6953 134.68 36.7793 134.973 36.8887 135.242C37.0098 135.535 37.1602 135.799 37.3398 136.033C37.5195 136.264 37.7227 136.461 37.9492 136.625C38.1797 136.781 38.4355 136.902 38.7168 136.988C38.998 137.074 39.3047 137.117 39.6367 137.117C39.9492 137.117 40.2402 137.078 40.5098 137C40.7832 136.926 41.0332 136.82 41.2598 136.684C41.5098 136.527 41.7324 136.332 41.9277 136.098C42.123 135.863 42.2871 135.605 42.4199 135.324C42.5449 135.043 42.6406 134.738 42.707 134.41C42.7734 134.078 42.8066 133.728 42.8066 133.361ZM41.1367 132.107V133.361C41.1367 133.572 41.125 133.775 41.1016 133.971C41.082 134.166 41.0508 134.346 41.0078 134.51C40.9531 134.721 40.8789 134.91 40.7852 135.078C40.6953 135.242 40.584 135.379 40.4512 135.488C40.3457 135.578 40.2246 135.646 40.0879 135.693C39.9512 135.74 39.8008 135.764 39.6367 135.764C39.4648 135.764 39.3105 135.738 39.1738 135.687C39.041 135.637 38.9219 135.564 38.8164 135.471C38.7031 135.365 38.6035 135.228 38.5176 135.06C38.4355 134.889 38.373 134.699 38.3301 134.492C38.291 134.328 38.2637 134.15 38.248 133.959C38.2324 133.768 38.2246 133.568 38.2246 133.361V132.107C38.2246 131.889 38.2324 131.68 38.248 131.48C38.2676 131.281 38.2969 131.098 38.3359 130.93C38.3867 130.711 38.457 130.519 38.5469 130.355C38.6406 130.191 38.7539 130.055 38.8867 129.945C38.9844 129.871 39.0938 129.814 39.2148 129.775C39.3398 129.736 39.4785 129.717 39.6309 129.717C39.791 129.717 39.9355 129.738 40.0645 129.781C40.1973 129.824 40.3164 129.885 40.4219 129.963C40.5547 130.068 40.6699 130.205 40.7676 130.373C40.8652 130.537 40.9434 130.725 41.002 130.935C41.0488 131.103 41.082 131.287 41.1016 131.486C41.125 131.682 41.1367 131.889 41.1367 132.107ZM46.082 128.469H44.0371V137H45.5488V134.475L45.4785 130.643L46.4805 134.187H47.2949L48.4141 130.484L48.3438 134.475V137H49.8555V128.469H47.8105L46.8906 131.674L46.082 128.469ZM55.6973 134.773C55.6973 134.926 55.666 135.066 55.6035 135.195C55.541 135.32 55.4512 135.428 55.334 135.518C55.2168 135.607 55.0723 135.678 54.9004 135.728C54.7324 135.779 54.5391 135.805 54.3203 135.805C54.0742 135.805 53.8477 135.777 53.6406 135.723C53.4375 135.668 53.2637 135.582 53.1191 135.465C52.9707 135.348 52.8555 135.197 52.7734 135.014C52.6914 134.83 52.6465 134.609 52.6387 134.352H51.0215C51.0215 134.793 51.1055 135.178 51.2734 135.506C51.4453 135.834 51.6777 136.119 51.9707 136.361C52.2793 136.607 52.6406 136.795 53.0547 136.924C53.4727 137.049 53.8945 137.111 54.3203 137.111C54.7539 137.111 55.1543 137.06 55.5215 136.959C55.8887 136.853 56.2051 136.699 56.4707 136.496C56.7363 136.297 56.9434 136.053 57.0918 135.764C57.2441 135.471 57.3203 135.137 57.3203 134.762C57.3203 134.328 57.2207 133.945 57.0215 133.613C56.8223 133.281 56.5547 132.99 56.2188 132.74C55.9961 132.588 55.752 132.453 55.4863 132.336C55.2207 132.219 54.9414 132.119 54.6484 132.037C54.375 131.963 54.1289 131.883 53.9102 131.797C53.6953 131.711 53.5117 131.615 53.3594 131.51C53.207 131.408 53.0898 131.293 53.0078 131.164C52.9297 131.035 52.8906 130.891 52.8906 130.73C52.8906 130.578 52.9199 130.437 52.9785 130.309C53.041 130.176 53.1309 130.06 53.248 129.963C53.3652 129.869 53.5078 129.797 53.6758 129.746C53.8477 129.691 54.043 129.664 54.2617 129.664C54.5 129.664 54.707 129.697 54.8828 129.764C55.0625 129.826 55.2129 129.914 55.334 130.027C55.4512 130.144 55.5391 130.283 55.5977 130.443C55.6602 130.603 55.6953 130.779 55.7031 130.971H57.3086C57.3086 130.588 57.2344 130.236 57.0859 129.916C56.9375 129.596 56.7305 129.318 56.4648 129.084C56.1992 128.853 55.8809 128.674 55.5098 128.545C55.1426 128.416 54.7363 128.352 54.291 128.352C53.8613 128.352 53.4629 128.408 53.0957 128.521C52.7285 128.631 52.4102 128.789 52.1406 128.996C51.8711 129.203 51.6602 129.453 51.5078 129.746C51.3555 130.039 51.2793 130.365 51.2793 130.725C51.2793 131.037 51.3359 131.326 51.4492 131.592C51.5664 131.857 51.7383 132.1 51.9648 132.318C52.1914 132.537 52.4824 132.738 52.8379 132.922C53.1973 133.105 53.6133 133.262 54.0859 133.391C54.3906 133.473 54.6445 133.562 54.8477 133.66C55.0547 133.754 55.2227 133.857 55.3516 133.971C55.4766 134.088 55.5645 134.213 55.6152 134.346C55.6699 134.478 55.6973 134.621 55.6973 134.773ZM64.4277 133.361V132.119C64.4277 131.732 64.3906 131.367 64.3164 131.023C64.2461 130.68 64.1426 130.363 64.0059 130.074C63.8809 129.82 63.7305 129.588 63.5547 129.377C63.3828 129.166 63.1816 128.986 62.9512 128.838C62.7207 128.682 62.4609 128.562 62.1719 128.48C61.8867 128.394 61.5801 128.352 61.252 128.352C60.9277 128.352 60.627 128.393 60.3496 128.475C60.0723 128.557 59.8223 128.674 59.5996 128.826C59.373 128.982 59.1719 129.17 58.9961 129.389C58.8242 129.607 58.6777 129.852 58.5566 130.121C58.4316 130.406 58.3359 130.717 58.2695 131.053C58.207 131.389 58.1758 131.744 58.1758 132.119V133.361C58.1758 133.713 58.2031 134.047 58.2578 134.363C58.3164 134.68 58.4004 134.973 58.5098 135.242C58.6309 135.535 58.7812 135.799 58.9609 136.033C59.1406 136.264 59.3438 136.461 59.5703 136.625C59.8008 136.781 60.0566 136.902 60.3379 136.988C60.6191 137.074 60.9258 137.117 61.2578 137.117C61.5703 137.117 61.8613 137.078 62.1309 137C62.4043 136.926 62.6543 136.82 62.8809 136.684C63.1309 136.527 63.3535 136.332 63.5488 136.098C63.7441 135.863 63.9082 135.605 64.041 135.324C64.166 135.043 64.2617 134.738 64.3281 134.41C64.3945 134.078 64.4277 133.728 64.4277 133.361ZM62.7578 132.107V133.361C62.7578 133.572 62.7461 133.775 62.7227 133.971C62.7031 134.166 62.6719 134.346 62.6289 134.51C62.5742 134.721 62.5 134.91 62.4062 135.078C62.3164 135.242 62.2051 135.379 62.0723 135.488C61.9668 135.578 61.8457 135.646 61.709 135.693C61.5723 135.74 61.4219 135.764 61.2578 135.764C61.0859 135.764 60.9316 135.738 60.7949 135.687C60.6621 135.637 60.543 135.564 60.4375 135.471C60.3242 135.365 60.2246 135.228 60.1387 135.06C60.0566 134.889 59.9941 134.699 59.9512 134.492C59.9121 134.328 59.8848 134.15 59.8691 133.959C59.8535 133.768 59.8457 133.568 59.8457 133.361V132.107C59.8457 131.889 59.8535 131.68 59.8691 131.48C59.8887 131.281 59.918 131.098 59.957 130.93C60.0078 130.711 60.0781 130.519 60.168 130.355C60.2617 130.191 60.375 130.055 60.5078 129.945C60.6055 129.871 60.7148 129.814 60.8359 129.775C60.9609 129.736 61.0996 129.717 61.252 129.717C61.4121 129.717 61.5566 129.738 61.6855 129.781C61.8184 129.824 61.9375 129.885 62.043 129.963C62.1758 130.068 62.291 130.205 62.3887 130.373C62.4863 130.537 62.5645 130.725 62.623 130.935C62.6699 131.103 62.7031 131.287 62.7227 131.486C62.7461 131.682 62.7578 131.889 62.7578 132.107ZM67.4453 135.67V128.469H65.793V137H71.4414V135.67H67.4453Z" fill="white"/>
<path d="M196 0L239.301 25V75L196 100L152.699 75V25L196 0Z" fill="#48A4C8"/>
<path d="M165.258 46.4687V52.3808C165.258 52.58 165.227 52.7675 165.164 52.9433C165.105 53.1152 165.021 53.2636 164.912 53.3886C164.803 53.5136 164.67 53.6132 164.514 53.6874C164.357 53.7578 164.186 53.7929 163.998 53.7929C163.764 53.7929 163.564 53.7617 163.4 53.6992C163.236 53.6367 163.104 53.541 163.002 53.412C162.924 53.3066 162.865 53.1777 162.826 53.0253C162.787 52.873 162.768 52.6953 162.768 52.4921H161.115C161.119 52.9335 161.191 53.3183 161.332 53.6464C161.473 53.9745 161.67 54.246 161.924 54.4609C162.174 54.6796 162.475 54.8437 162.826 54.9531C163.178 55.0624 163.568 55.1171 163.998 55.1171C164.404 55.1171 164.783 55.0507 165.135 54.9179C165.49 54.7851 165.799 54.5976 166.061 54.3554C166.322 54.1132 166.527 53.8261 166.676 53.4941C166.828 53.1581 166.906 52.787 166.91 52.3808L166.904 46.4687H165.258ZM172.459 54.9999H174.111V54.9003C174.029 54.7402 173.967 54.5488 173.924 54.3261C173.881 54.1035 173.859 53.8222 173.859 53.4824V50.7636C173.859 50.3964 173.791 50.0742 173.654 49.7968C173.518 49.5156 173.328 49.2831 173.086 49.0995C172.844 48.916 172.557 48.7773 172.225 48.6835C171.896 48.5898 171.541 48.5429 171.158 48.5429C170.732 48.5429 170.354 48.5976 170.021 48.707C169.693 48.8124 169.416 48.957 169.189 49.1406C168.959 49.3242 168.783 49.537 168.662 49.7792C168.545 50.0214 168.486 50.2773 168.486 50.5468H170.115C170.115 50.4335 170.131 50.33 170.162 50.2363C170.197 50.1425 170.25 50.0624 170.32 49.996C170.398 49.9218 170.5 49.8652 170.625 49.8261C170.75 49.7831 170.898 49.7617 171.07 49.7617C171.266 49.7617 171.436 49.787 171.58 49.8378C171.729 49.8847 171.852 49.9531 171.949 50.0429C172.043 50.1288 172.113 50.2324 172.16 50.3535C172.207 50.4706 172.23 50.6035 172.23 50.7519V51.1269H171.322C170.854 51.1269 170.438 51.1699 170.074 51.2558C169.715 51.3378 169.412 51.4589 169.166 51.6191C168.893 51.7949 168.688 52.0195 168.551 52.2929C168.414 52.5624 168.346 52.873 168.346 53.2245C168.346 53.498 168.4 53.7519 168.51 53.9863C168.619 54.2167 168.771 54.416 168.967 54.5839C169.162 54.7519 169.395 54.8828 169.664 54.9765C169.938 55.0703 170.236 55.1171 170.561 55.1171C170.76 55.1171 170.945 55.0976 171.117 55.0585C171.289 55.0234 171.447 54.9726 171.592 54.9062C171.732 54.8437 171.861 54.7695 171.979 54.6835C172.096 54.5976 172.199 54.5058 172.289 54.4081C172.309 54.5214 172.332 54.6288 172.359 54.7304C172.387 54.832 172.42 54.9218 172.459 54.9999ZM170.906 53.8574C170.754 53.8574 170.619 53.8398 170.502 53.8046C170.389 53.7656 170.293 53.7148 170.215 53.6523C170.137 53.5859 170.076 53.5058 170.033 53.412C169.994 53.3144 169.975 53.2089 169.975 53.0956C169.975 52.9511 170.002 52.8183 170.057 52.6972C170.111 52.5722 170.195 52.4648 170.309 52.3749C170.422 52.289 170.568 52.2226 170.748 52.1757C170.928 52.1249 171.145 52.0995 171.398 52.0995H172.23V53.1894C172.184 53.2714 172.119 53.3535 172.037 53.4355C171.955 53.5136 171.857 53.5839 171.744 53.6464C171.631 53.7089 171.504 53.7597 171.363 53.7988C171.223 53.8378 171.07 53.8574 170.906 53.8574ZM177.721 54.9999H179.25L181.658 48.6601H179.959L178.57 53.1308L178.482 53.5761L178.395 53.1308L177 48.6601H175.301L177.721 54.9999ZM186.873 54.9999H188.525V54.9003C188.443 54.7402 188.381 54.5488 188.338 54.3261C188.295 54.1035 188.273 53.8222 188.273 53.4824V50.7636C188.273 50.3964 188.205 50.0742 188.068 49.7968C187.932 49.5156 187.742 49.2831 187.5 49.0995C187.258 48.916 186.971 48.7773 186.639 48.6835C186.311 48.5898 185.955 48.5429 185.572 48.5429C185.146 48.5429 184.768 48.5976 184.436 48.707C184.107 48.8124 183.83 48.957 183.604 49.1406C183.373 49.3242 183.197 49.537 183.076 49.7792C182.959 50.0214 182.9 50.2773 182.9 50.5468H184.529C184.529 50.4335 184.545 50.33 184.576 50.2363C184.611 50.1425 184.664 50.0624 184.734 49.996C184.812 49.9218 184.914 49.8652 185.039 49.8261C185.164 49.7831 185.312 49.7617 185.484 49.7617C185.68 49.7617 185.85 49.787 185.994 49.8378C186.143 49.8847 186.266 49.9531 186.363 50.0429C186.457 50.1288 186.527 50.2324 186.574 50.3535C186.621 50.4706 186.645 50.6035 186.645 50.7519V51.1269H185.736C185.268 51.1269 184.852 51.1699 184.488 51.2558C184.129 51.3378 183.826 51.4589 183.58 51.6191C183.307 51.7949 183.102 52.0195 182.965 52.2929C182.828 52.5624 182.76 52.873 182.76 53.2245C182.76 53.498 182.814 53.7519 182.924 53.9863C183.033 54.2167 183.186 54.416 183.381 54.5839C183.576 54.7519 183.809 54.8828 184.078 54.9765C184.352 55.0703 184.65 55.1171 184.975 55.1171C185.174 55.1171 185.359 55.0976 185.531 55.0585C185.703 55.0234 185.861 54.9726 186.006 54.9062C186.146 54.8437 186.275 54.7695 186.393 54.6835C186.51 54.5976 186.613 54.5058 186.703 54.4081C186.723 54.5214 186.746 54.6288 186.773 54.7304C186.801 54.832 186.834 54.9218 186.873 54.9999ZM185.32 53.8574C185.168 53.8574 185.033 53.8398 184.916 53.8046C184.803 53.7656 184.707 53.7148 184.629 53.6523C184.551 53.5859 184.49 53.5058 184.447 53.412C184.408 53.3144 184.389 53.2089 184.389 53.0956C184.389 52.9511 184.416 52.8183 184.471 52.6972C184.525 52.5722 184.609 52.4648 184.723 52.3749C184.836 52.289 184.982 52.2226 185.162 52.1757C185.342 52.1249 185.559 52.0995 185.812 52.0995H186.645V53.1894C186.598 53.2714 186.533 53.3535 186.451 53.4355C186.369 53.5136 186.271 53.5839 186.158 53.6464C186.045 53.7089 185.918 53.7597 185.777 53.7988C185.637 53.8378 185.484 53.8574 185.32 53.8574ZM194.49 52.7734C194.49 52.9257 194.459 53.0663 194.396 53.1953C194.334 53.3203 194.244 53.4277 194.127 53.5175C194.01 53.6074 193.865 53.6777 193.693 53.7285C193.525 53.7792 193.332 53.8046 193.113 53.8046C192.867 53.8046 192.641 53.7773 192.434 53.7226C192.23 53.6679 192.057 53.582 191.912 53.4648C191.764 53.3476 191.648 53.1972 191.566 53.0136C191.484 52.83 191.439 52.6093 191.432 52.3515H189.814C189.814 52.7929 189.898 53.1777 190.066 53.5058C190.238 53.8339 190.471 54.1191 190.764 54.3613C191.072 54.6074 191.434 54.7949 191.848 54.9238C192.266 55.0488 192.688 55.1113 193.113 55.1113C193.547 55.1113 193.947 55.0605 194.314 54.9589C194.682 54.8535 194.998 54.6992 195.264 54.496C195.529 54.2968 195.736 54.0527 195.885 53.7636C196.037 53.4706 196.113 53.1367 196.113 52.7617C196.113 52.3281 196.014 51.9453 195.814 51.6132C195.615 51.2812 195.348 50.9902 195.012 50.7402C194.789 50.5878 194.545 50.4531 194.279 50.3359C194.014 50.2187 193.734 50.1191 193.441 50.037C193.168 49.9628 192.922 49.8828 192.703 49.7968C192.488 49.7109 192.305 49.6152 192.152 49.5097C192 49.4081 191.883 49.2929 191.801 49.164C191.723 49.0351 191.684 48.8906 191.684 48.7304C191.684 48.5781 191.713 48.4374 191.771 48.3085C191.834 48.1757 191.924 48.0605 192.041 47.9628C192.158 47.8691 192.301 47.7968 192.469 47.746C192.641 47.6913 192.836 47.664 193.055 47.664C193.293 47.664 193.5 47.6972 193.676 47.7636C193.855 47.8261 194.006 47.914 194.127 48.0273C194.244 48.1445 194.332 48.2831 194.391 48.4433C194.453 48.6035 194.488 48.7792 194.496 48.9706H196.102C196.102 48.5878 196.027 48.2363 195.879 47.916C195.73 47.5956 195.523 47.3183 195.258 47.0839C194.992 46.8535 194.674 46.6738 194.303 46.5449C193.936 46.416 193.529 46.3515 193.084 46.3515C192.654 46.3515 192.256 46.4081 191.889 46.5214C191.521 46.6308 191.203 46.789 190.934 46.996C190.664 47.2031 190.453 47.4531 190.301 47.746C190.148 48.039 190.072 48.3652 190.072 48.7245C190.072 49.037 190.129 49.3261 190.242 49.5917C190.359 49.8574 190.531 50.0995 190.758 50.3183C190.984 50.537 191.275 50.7382 191.631 50.9218C191.99 51.1054 192.406 51.2617 192.879 51.3906C193.184 51.4726 193.438 51.5624 193.641 51.6601C193.848 51.7538 194.016 51.8574 194.145 51.9706C194.27 52.0878 194.357 52.2128 194.408 52.3456C194.463 52.4785 194.49 52.621 194.49 52.7734ZM200.133 53.8163C199.871 53.8163 199.654 53.7636 199.482 53.6581C199.314 53.5527 199.182 53.412 199.084 53.2363C198.982 53.0644 198.912 52.8652 198.873 52.6386C198.834 52.4081 198.814 52.1699 198.814 51.9238V51.748C198.814 51.5058 198.834 51.2714 198.873 51.0449C198.916 50.8183 198.988 50.6171 199.09 50.4413C199.188 50.2656 199.32 50.1249 199.488 50.0195C199.656 49.914 199.869 49.8613 200.127 49.8613C200.303 49.8613 200.465 49.8925 200.613 49.955C200.762 50.0136 200.889 50.0937 200.994 50.1953C201.1 50.2968 201.18 50.4179 201.234 50.5585C201.289 50.6992 201.312 50.8476 201.305 51.0038H202.84C202.848 50.6288 202.785 50.291 202.652 49.9902C202.52 49.6855 202.334 49.4257 202.096 49.2109C201.854 48.9999 201.566 48.8359 201.234 48.7187C200.902 48.6015 200.541 48.5429 200.15 48.5429C199.662 48.5429 199.232 48.6269 198.861 48.7949C198.494 48.9628 198.186 49.1913 197.936 49.4804C197.686 49.7695 197.498 50.1093 197.373 50.4999C197.248 50.8867 197.186 51.3027 197.186 51.748V51.9238C197.186 52.3691 197.248 52.787 197.373 53.1777C197.502 53.5644 197.691 53.9023 197.941 54.1913C198.188 54.4804 198.496 54.7089 198.867 54.8769C199.238 55.041 199.67 55.123 200.162 55.123C200.525 55.123 200.869 55.0663 201.193 54.9531C201.521 54.8359 201.809 54.6757 202.055 54.4726C202.301 54.2695 202.494 54.0273 202.635 53.746C202.779 53.4648 202.848 53.1601 202.84 52.832H201.305C201.312 52.9804 201.285 53.1152 201.223 53.2363C201.164 53.3574 201.08 53.4609 200.971 53.5468C200.861 53.6328 200.734 53.6992 200.59 53.746C200.445 53.7929 200.293 53.8163 200.133 53.8163ZM209.086 48.5429C208.66 48.5429 208.268 48.6464 207.908 48.8535C207.549 49.0566 207.24 49.3378 206.982 49.6972L206.971 49.5566L206.906 48.6601H205.389V54.9999H207.018V51.1913C207.092 51.0117 207.186 50.8554 207.299 50.7226C207.412 50.5898 207.549 50.4804 207.709 50.3945C207.842 50.3203 207.992 50.2656 208.16 50.2304C208.332 50.1913 208.523 50.1718 208.734 50.1718C208.938 50.1718 209.15 50.1855 209.373 50.2128C209.6 50.2363 209.82 50.2734 210.035 50.3242L210.275 48.7011C210.146 48.662 209.977 48.6269 209.766 48.5956C209.559 48.5605 209.332 48.5429 209.086 48.5429ZM212.174 48.6601V49.9902H213.979V53.6757H212.174V54.9999H217.342V53.6757H215.625V48.6601H212.174ZM213.861 47.037C213.861 47.162 213.883 47.2792 213.926 47.3886C213.973 47.4941 214.037 47.5839 214.119 47.6581C214.201 47.7363 214.299 47.7968 214.412 47.8398C214.529 47.8828 214.658 47.9042 214.799 47.9042C215.088 47.9042 215.316 47.8242 215.484 47.664C215.656 47.4999 215.742 47.291 215.742 47.037C215.742 46.7831 215.656 46.5761 215.484 46.416C215.316 46.2519 215.088 46.1699 214.799 46.1699C214.658 46.1699 214.529 46.1913 214.412 46.2343C214.299 46.2773 214.201 46.3359 214.119 46.4101C214.037 46.4882 213.973 46.582 213.926 46.6913C213.883 46.7968 213.861 46.912 213.861 47.037ZM218.971 57.4374H220.6V54.4492C220.674 54.5312 220.752 54.6054 220.834 54.6718C220.916 54.7382 221.002 54.7988 221.092 54.8535C221.244 54.9394 221.408 55.0038 221.584 55.0468C221.764 55.0937 221.959 55.1171 222.17 55.1171C222.568 55.1171 222.922 55.0351 223.23 54.871C223.539 54.707 223.799 54.4804 224.01 54.1913C224.217 53.9062 224.373 53.5663 224.479 53.1718C224.588 52.7773 224.643 52.3495 224.643 51.8886V51.7656C224.643 51.2851 224.588 50.8476 224.479 50.4531C224.373 50.0546 224.215 49.7128 224.004 49.4277C223.793 49.1464 223.533 48.9296 223.225 48.7773C222.916 48.621 222.561 48.5429 222.158 48.5429C221.963 48.5429 221.779 48.5644 221.607 48.6074C221.439 48.6464 221.285 48.7031 221.145 48.7773C221.027 48.8398 220.918 48.914 220.816 48.9999C220.715 49.082 220.621 49.1757 220.535 49.2812L220.477 48.6601H218.971V57.4374ZM223.014 51.7656V51.8886C223.014 52.1503 222.99 52.3984 222.943 52.6328C222.896 52.8632 222.822 53.0663 222.721 53.2421C222.619 53.4179 222.486 53.5566 222.322 53.6581C222.162 53.7597 221.967 53.8105 221.736 53.8105C221.592 53.8105 221.461 53.7968 221.344 53.7695C221.227 53.7382 221.123 53.6953 221.033 53.6406C220.939 53.582 220.855 53.5117 220.781 53.4296C220.711 53.3476 220.65 53.2558 220.6 53.1542V50.5058C220.654 50.3964 220.719 50.3007 220.793 50.2187C220.871 50.1367 220.961 50.0683 221.062 50.0136C221.152 49.9667 221.252 49.9316 221.361 49.9081C221.471 49.8808 221.592 49.8671 221.725 49.8671C221.955 49.8671 222.15 49.916 222.311 50.0136C222.475 50.1113 222.609 50.2441 222.715 50.412C222.816 50.5839 222.891 50.787 222.938 51.0214C222.988 51.2519 223.014 51.4999 223.014 51.7656ZM229.143 47.1074H227.514V48.6601H226.066V49.8613H227.514V52.7441C227.514 53.162 227.568 53.5214 227.678 53.8222C227.787 54.1191 227.943 54.3632 228.146 54.5546C228.346 54.7499 228.586 54.8945 228.867 54.9882C229.152 55.0781 229.469 55.123 229.816 55.123C229.996 55.123 230.178 55.1132 230.361 55.0937C230.549 55.0781 230.729 55.0546 230.9 55.0234C231.072 54.9921 231.234 54.9531 231.387 54.9062C231.539 54.8554 231.672 54.7968 231.785 54.7304L231.627 53.6113C231.553 53.6308 231.463 53.6503 231.357 53.6699C231.256 53.6894 231.146 53.707 231.029 53.7226C230.908 53.7421 230.781 53.7578 230.648 53.7695C230.52 53.7812 230.393 53.787 230.268 53.787C230.096 53.787 229.939 53.7675 229.799 53.7285C229.662 53.6894 229.545 53.623 229.447 53.5292C229.35 53.4394 229.273 53.3183 229.219 53.166C229.168 53.0097 229.143 52.8163 229.143 52.5859V49.8613H231.51V48.6601H229.143V47.1074Z" fill="white"/>
<path d="M146 82L189.301 107V157L146 182L102.699 157V107L146 82Z" fill="#2A3E4C"/>
<path d="M131.793 133.496L133.902 137H135.859L132.883 132.242L135.754 128.469H133.738L131.664 131.334L130.891 132.377V128.469H129.238V137H130.891V134.486L131.793 133.496ZM136.949 130.66V131.99H138.754V135.676H136.949V137H142.117V135.676H140.4V130.66H136.949ZM138.637 129.037C138.637 129.162 138.658 129.279 138.701 129.389C138.748 129.494 138.812 129.584 138.895 129.658C138.977 129.736 139.074 129.797 139.188 129.84C139.305 129.883 139.434 129.904 139.574 129.904C139.863 129.904 140.092 129.824 140.26 129.664C140.432 129.5 140.518 129.291 140.518 129.037C140.518 128.783 140.432 128.576 140.26 128.416C140.092 128.252 139.863 128.17 139.574 128.17C139.434 128.17 139.305 128.191 139.188 128.234C139.074 128.277 138.977 128.336 138.895 128.41C138.812 128.488 138.748 128.582 138.701 128.691C138.658 128.797 138.637 128.912 138.637 129.037ZM149.588 134.328H147.941C147.926 134.586 147.883 134.807 147.812 134.99C147.742 135.174 147.646 135.324 147.525 135.441C147.404 135.559 147.258 135.644 147.086 135.699C146.914 135.754 146.721 135.781 146.506 135.781C146.346 135.781 146.199 135.764 146.066 135.728C145.938 135.689 145.82 135.631 145.715 135.553C145.617 135.482 145.529 135.394 145.451 135.289C145.377 135.184 145.312 135.062 145.258 134.926C145.18 134.727 145.121 134.494 145.082 134.228C145.047 133.959 145.029 133.654 145.029 133.314V132.154C145.029 131.904 145.041 131.672 145.064 131.457C145.088 131.238 145.125 131.039 145.176 130.859C145.242 130.629 145.33 130.428 145.439 130.256C145.553 130.08 145.689 129.945 145.85 129.852C145.943 129.797 146.045 129.756 146.154 129.728C146.268 129.701 146.389 129.687 146.518 129.687C146.76 129.687 146.967 129.721 147.139 129.787C147.314 129.85 147.461 129.943 147.578 130.068C147.691 130.197 147.777 130.357 147.836 130.549C147.898 130.74 147.938 130.963 147.953 131.217H149.594C149.555 130.771 149.461 130.371 149.312 130.016C149.164 129.66 148.961 129.359 148.703 129.113C148.445 128.867 148.133 128.678 147.766 128.545C147.402 128.412 146.986 128.346 146.518 128.346C146.201 128.346 145.904 128.387 145.627 128.469C145.354 128.547 145.102 128.66 144.871 128.809C144.613 128.984 144.383 129.199 144.18 129.453C143.977 129.707 143.812 129.996 143.688 130.32C143.578 130.586 143.496 130.875 143.441 131.187C143.387 131.496 143.359 131.822 143.359 132.166V133.314C143.359 133.682 143.389 134.029 143.447 134.357C143.51 134.685 143.598 134.986 143.711 135.26C143.828 135.533 143.971 135.783 144.139 136.01C144.311 136.236 144.506 136.43 144.725 136.59C144.963 136.762 145.23 136.894 145.527 136.988C145.828 137.078 146.154 137.123 146.506 137.123C146.951 137.123 147.357 137.059 147.725 136.93C148.092 136.797 148.408 136.609 148.674 136.367C148.939 136.125 149.15 135.832 149.307 135.488C149.467 135.144 149.561 134.758 149.588 134.328ZM154.891 137H156.543V136.9C156.461 136.74 156.398 136.549 156.355 136.326C156.312 136.103 156.291 135.822 156.291 135.482V132.764C156.291 132.396 156.223 132.074 156.086 131.797C155.949 131.516 155.76 131.283 155.518 131.1C155.275 130.916 154.988 130.777 154.656 130.684C154.328 130.59 153.973 130.543 153.59 130.543C153.164 130.543 152.785 130.598 152.453 130.707C152.125 130.812 151.848 130.957 151.621 131.141C151.391 131.324 151.215 131.537 151.094 131.779C150.977 132.021 150.918 132.277 150.918 132.547H152.547C152.547 132.434 152.562 132.33 152.594 132.236C152.629 132.143 152.682 132.062 152.752 131.996C152.83 131.922 152.932 131.865 153.057 131.826C153.182 131.783 153.33 131.762 153.502 131.762C153.697 131.762 153.867 131.787 154.012 131.838C154.16 131.885 154.283 131.953 154.381 132.043C154.475 132.129 154.545 132.232 154.592 132.353C154.639 132.471 154.662 132.603 154.662 132.752V133.127H153.754C153.285 133.127 152.869 133.17 152.506 133.256C152.146 133.338 151.844 133.459 151.598 133.619C151.324 133.795 151.119 134.019 150.982 134.293C150.846 134.562 150.777 134.873 150.777 135.225C150.777 135.498 150.832 135.752 150.941 135.986C151.051 136.217 151.203 136.416 151.398 136.584C151.594 136.752 151.826 136.883 152.096 136.977C152.369 137.07 152.668 137.117 152.992 137.117C153.191 137.117 153.377 137.098 153.549 137.059C153.721 137.023 153.879 136.973 154.023 136.906C154.164 136.844 154.293 136.769 154.41 136.684C154.527 136.598 154.631 136.506 154.721 136.408C154.74 136.521 154.764 136.629 154.791 136.73C154.818 136.832 154.852 136.922 154.891 137ZM153.338 135.857C153.186 135.857 153.051 135.84 152.934 135.805C152.82 135.766 152.725 135.715 152.646 135.652C152.568 135.586 152.508 135.506 152.465 135.412C152.426 135.314 152.406 135.209 152.406 135.096C152.406 134.951 152.434 134.818 152.488 134.697C152.543 134.572 152.627 134.465 152.74 134.375C152.854 134.289 153 134.223 153.18 134.176C153.359 134.125 153.576 134.1 153.83 134.1H154.662V135.189C154.615 135.271 154.551 135.353 154.469 135.435C154.387 135.514 154.289 135.584 154.176 135.646C154.062 135.709 153.936 135.76 153.795 135.799C153.654 135.838 153.502 135.857 153.338 135.857ZM157.967 133.783V133.906C157.967 134.367 158.023 134.795 158.137 135.189C158.25 135.58 158.414 135.918 158.629 136.203C158.84 136.488 159.098 136.713 159.402 136.877C159.711 137.037 160.059 137.117 160.445 137.117C160.801 137.117 161.113 137.049 161.383 136.912C161.652 136.775 161.887 136.584 162.086 136.338L162.168 137H163.639V128H162.004V131.228C161.809 131.01 161.584 130.842 161.33 130.725C161.08 130.603 160.789 130.543 160.457 130.543C160.062 130.543 159.711 130.621 159.402 130.777C159.098 130.934 158.838 131.154 158.623 131.439C158.408 131.725 158.244 132.066 158.131 132.465C158.021 132.863 157.967 133.303 157.967 133.783ZM159.596 133.906V133.783C159.596 133.518 159.619 133.269 159.666 133.039C159.713 132.805 159.787 132.6 159.889 132.424C159.99 132.252 160.121 132.117 160.281 132.019C160.445 131.918 160.643 131.867 160.873 131.867C161.15 131.867 161.381 131.928 161.564 132.049C161.748 132.166 161.895 132.332 162.004 132.547V135.113C161.895 135.324 161.746 135.49 161.559 135.611C161.375 135.732 161.143 135.793 160.861 135.793C160.631 135.793 160.436 135.744 160.275 135.646C160.115 135.549 159.984 135.414 159.883 135.242C159.781 135.074 159.707 134.877 159.66 134.65C159.617 134.42 159.596 134.172 159.596 133.906Z" fill="white"/>
</svg>
